<svg width="844" height="414" viewBox="0 0 844 414" fill="none" xmlns="http://www.w3.org/2000/svg">
    <path d="M398.999 46.7204C401.162 44.1754 405.139 44.1483 407.345 46.6662C407.998 49.4142 406.706 52.6496 403.295 52.8661C399.797 52.812 398.476 49.4954 398.999 46.7204Z" fill="#261961"/>
    <path d="M424.794 46.6516C427.16 43.1184 431.456 45.3791 434.025 47.3826C432.98 49.1153 431.964 50.8751 430.817 52.5537C429.714 52.6079 427.508 52.7026 426.39 52.7568C425.563 51.5114 424.75 50.2524 423.966 48.9799C424.17 48.3978 424.59 47.2337 424.794 46.6516Z" fill="#271A6A"/>
    <path d="M680.169 222.646C683.914 224.054 688.312 224.352 691.433 226.924C695.25 230.917 696.702 236.278 698.24 241.3C691.535 243.723 685.83 248.028 678.936 250.018C675.438 251.101 671.867 251.994 668.311 252.874C667.614 248.204 667.062 243.249 663.593 239.567C663.869 244.129 663.913 248.705 663.913 253.28C664.334 253.334 665.19 253.456 665.626 253.51C660.69 257.707 659.326 264.056 656.554 269.484L655.509 268.063C650.675 273.477 646.742 279.528 641.749 284.821C635.797 291.116 635.507 300.118 630.543 306.887C626.101 310.501 619.904 311.679 615.738 315.713C622.255 316.539 627.64 312.789 632.967 309.973C629.556 313.723 625.637 317.026 621.645 320.221L621.152 320.329C620.441 320.342 619.018 320.383 618.307 320.397C610.716 313.1 603.255 305.682 595.736 298.331C599.844 297.573 604.59 296.68 606.956 293.038C610.135 287.921 609.496 281.613 612.298 276.334C617.146 267.25 623.75 259.115 629.513 250.546C632.43 246.254 633.446 240.961 637.089 237.103C641.299 233.448 647.134 232 652.707 231.35C662.302 230.551 673.899 230.768 680.169 222.646ZM650.138 237.767C649.543 244.237 650.312 250.816 648.803 257.206C647.119 267.264 642.155 276.591 635.943 284.862C635.101 286.053 634.506 287.339 634.143 288.72C635.609 288.287 636.799 287.502 637.699 286.351C646.771 274.438 652.359 259.967 652.054 245.253C651.836 242.694 652.664 239.581 650.138 237.767ZM640.239 240.894C639.586 252.712 639.76 265.071 633.78 275.873C631.617 282.141 626.58 286.947 623.736 292.876C625.535 292.267 627.132 291.238 628.134 289.668C637.075 277.782 642.097 263.284 641.995 248.745C641.908 246.051 641.807 243.236 640.239 240.894ZM603.473 297.871C602.994 303.678 608.364 308.267 614.199 309.066C611.978 305.154 606.448 304.017 605.273 299.374C609.917 302 615.23 303.191 620.644 303.123C621.079 302.568 621.936 301.485 622.371 300.944C619.018 300.714 615.651 300.687 612.356 300.145C609.555 298.737 606.797 297.181 603.473 297.871Z" fill="#3B347A"/>
    <path d="M519.156 297.277C534.049 293.608 548.883 289.709 563.761 286C569.087 290.224 574.429 294.461 579.524 298.942C564.269 303.043 549.159 307.673 533.903 311.734C528.359 307.687 523.612 302.407 519.156 297.277Z" fill="#3B347A"/>
    <path d="M173.541 318.581C171.683 312.99 169.622 307.196 170.29 301.254C174.194 309.944 181.495 316.835 185.371 325.512L185.835 328.03C181.277 325.539 175.37 323.698 173.541 318.581Z" fill="#3B347A"/>
    <path d="M150.359 351.991C156.209 349.094 161.971 346.021 168.039 343.489C172.669 345.479 177.401 347.266 182.089 349.161C179.157 352.045 176.181 354.915 173.22 357.798C165.295 357.338 156.935 356.553 150.359 351.991Z" fill="#301D49"/>
    <path d="M118.268 171.993C126.338 169.394 135.511 168.622 143.451 172.006C148.821 174.159 154.323 178.423 154.54 184.298C154.569 188.373 150.926 191.378 147.225 192.935C145.236 193.76 143.161 194.424 141.303 195.507C137.5 201.964 141.216 209.301 145.86 214.391C150.389 219.318 149.475 226.493 144.351 230.716C130.431 232.517 115.002 231.556 102.983 224.219C98.2371 217.098 98.9919 208.286 100.284 200.366C102.258 190.43 106.09 179.939 115.002 173.536C116.047 172.94 117.135 172.426 118.268 171.993Z" fill="#2F267D"/>
    <path d="M647.031 182.983C653.708 168.864 676.163 166.035 688.167 175.754C694.814 181.182 694.872 190.496 692.797 197.887C690.242 206.158 684.306 215.255 674.261 216.324C671.91 215.851 669.573 215.296 667.28 214.686C664.493 213.035 662.214 210.828 660.051 208.554C661.662 206.212 665.015 204.06 664.043 200.933C664.028 199.16 660.24 196.709 659.834 199.606C658.803 202.774 658.382 206.321 655.566 208.676C654.289 202.381 657.134 196.506 659.601 190.834C656.321 190.32 653.026 189.86 649.789 189.264C647.438 187.978 645.406 185.582 647.031 182.983Z" fill="#413A80"/>
    <path d="M186.315 179.545C194.269 172.465 207.347 171.761 216.593 177.027C218.785 178.326 221.093 180.208 221.209 182.834C220.585 186.827 216.724 189.034 213.081 190.442C210.482 196.154 213.414 201.799 215.446 207.187C212.355 204.954 210.54 199.498 206.041 200.337C202.006 203.356 204.909 208.365 208.32 210.571C207.333 216.785 206.331 223.066 202.252 228.278C202.601 230.065 203.37 231.73 204.256 233.341C204.894 235.615 206.012 238.634 203.82 240.556C200.903 243.48 196.548 244.468 192.586 245.537L190.974 245.673C189.305 245.808 187.65 245.917 185.981 245.998C175.821 246.336 165.544 241.585 160.943 232.921C158.272 227.56 156.124 220.968 159.434 215.431C162.975 209.231 171.612 208.054 175.821 202.612C177.635 194.435 179.304 185.447 186.315 179.545Z" fill="#413A80"/>
    <path d="M714.422 183.348C721.825 178.719 732 175.605 740.389 179.883C747.27 183.822 751.45 190.618 755.282 197.021C761.581 208.662 766.081 222.565 761.233 235.371C756.762 245.267 745.47 251.209 734.264 251.764C724.336 252.265 713.755 251.047 705.351 245.727C700.807 240.989 706.454 236.17 707.658 231.31C708.747 225.178 709.255 218.883 708.37 212.71C708.094 210.179 706.178 208.27 704.334 206.578C702.419 204.493 698.616 202.571 699.835 199.308C702.128 192.432 708.283 187.369 714.422 183.348Z" fill="#301D4A"/>
    <path d="M159.23 242.207C163.425 246.525 167.808 250.898 173.469 253.551C177.867 255.595 182.57 257.003 187.156 258.654C190.016 274.141 194.428 289.681 203.094 303.299C206.287 308.362 210.671 312.681 215.809 316.078C211.121 320.654 206.49 325.27 201.816 329.859C196.33 328.411 190.858 326.949 185.371 325.514C181.496 316.836 174.195 309.946 170.29 301.255C168.476 297.14 167.257 292.808 166.473 288.422C164.499 278.053 161.726 267.833 158.519 257.734C158.62 252.549 158.867 247.365 159.23 242.207Z" fill="#A28AC1"/>
    <path d="M678.931 250.019C685.826 248.029 691.53 243.724 698.236 241.301C698.86 243.602 699.455 245.917 700.065 248.232C694.811 250.899 690.34 254.825 687.234 259.59C677.669 273.885 671.979 290.088 662.82 304.573C660.352 308.878 655.475 310.976 650.758 312.479C641.265 315.687 631.511 318.218 621.641 320.222C625.633 317.027 629.552 313.724 632.963 309.974C644.241 298.454 649.756 283.455 656.549 269.485C659.322 264.057 660.686 257.708 665.621 253.511C666.289 253.349 667.639 253.024 668.307 252.875C671.863 251.995 675.433 251.102 678.931 250.019Z" fill="#A28AC1"/>
    <path d="M75.6657 328.71C67.7406 305.128 66.8407 279.611 72.0515 255.434C79.7154 255.204 87.655 256.95 93.0401 262.378C100.936 270 101.226 281.263 102.634 291.158C105.363 309.731 107.294 328.723 114.914 346.24C119.341 356.082 127.077 365.612 138.457 368.82C147.747 371.243 157.239 373.585 166.95 373.571C171.508 373.436 176.152 373.382 180.55 374.708C158.618 379.947 134.233 381.545 113.303 372.15C94.5206 363.852 81.791 346.836 75.6657 328.71Z" fill="#A28AC1"/>
    <path d="M741.071 282.659C749.853 273.657 763.961 272.384 776.226 273.44C778.825 296.467 774.76 320.387 762.742 340.787C750.738 361.201 730.461 377.648 706.41 384.376C686.35 390.183 664.186 388.992 644.809 381.56C652.356 380.843 659.977 382.075 667.51 381.046C677.525 379.787 687.947 376.782 694.841 369.485C711.446 353.552 718.835 331.825 726.963 311.479C731.158 301.706 733.959 291.052 741.071 282.659Z" fill="#A28AC1"/>
    <path d="M649.788 189.264C653.024 189.859 656.319 190.319 659.6 190.834C657.132 196.506 654.287 202.381 655.565 208.676C658.38 206.32 658.801 202.773 659.832 199.606C660.238 196.709 664.027 199.159 664.041 200.932C665.014 204.059 661.661 206.212 660.05 208.554C662.212 210.828 664.491 213.034 667.278 214.686C663.78 216.974 659.527 217.637 655.463 218.463C644.969 212.168 647.436 198.902 649.788 189.264Z" fill="#F8BFB2"/>
    <path d="M213.08 190.444C218.813 189.023 221.672 194.776 224.662 198.242C224.125 202.56 224.111 206.878 224.242 211.223C223.792 215.406 218.044 215.515 215.054 217.559C209.436 220.984 209.886 227.996 209.901 233.505C207.201 231.976 204.632 230.229 202.251 228.28C206.33 223.068 207.332 216.787 208.319 210.574C204.908 208.367 202.005 203.358 206.04 200.34C210.539 199.5 212.354 204.956 215.446 207.189C213.413 201.802 210.481 196.157 213.08 190.444ZM216.041 193.896C214.531 195.196 216.374 198.377 218.348 197.321C219.902 196.021 218.073 192.732 216.041 193.896ZM218.015 207.623C217.797 209.599 222.935 209.477 222.819 207.555C221.208 206.567 219.611 206.58 218.015 207.623Z" fill="#F8BEB3"/>
    <path d="M141.303 195.504C143.161 194.421 145.237 193.758 147.225 192.932C149.94 200.08 147.966 207.39 145.861 214.388C141.216 209.298 137.5 201.961 141.303 195.504Z" fill="#F5BAAD"/>
    <path d="M216.038 193.893C218.07 192.729 219.899 196.019 218.345 197.318C216.371 198.374 214.528 195.193 216.038 193.893Z" fill="#3B3379"/>
    <path d="M102.982 224.218C115 231.555 130.429 232.516 144.349 230.715C149.749 234.492 153.087 240.083 154.988 246.026C150.315 242.696 147.194 236.455 140.517 236.55C132.142 236.997 126.525 244.686 126.597 252.09C126.873 273.262 135.074 293.419 143.42 312.817C147.455 320.303 150.141 328.493 155.511 335.289C158.545 339.309 163.436 341.435 168.037 343.492C161.97 346.024 156.208 349.097 150.358 351.993C143.231 345.685 138.514 337.441 134.755 329.089C127.41 312.75 123.84 295.165 122.315 277.581C121.633 270.636 121.851 263.543 119.703 256.801C109.746 253.417 100.427 248.693 91.0068 244.225C93.9824 237.078 97.3063 229.89 102.982 224.218Z" fill="#3B3379"/>
    <path d="M218.015 207.621C219.611 206.579 221.208 206.565 222.819 207.553C222.935 209.476 217.797 209.597 218.015 207.621Z" fill="#D28F87"/>
    <path d="M704.336 206.576C706.18 208.268 708.096 210.177 708.371 212.708C709.257 218.881 708.749 225.176 707.66 231.308C701.564 224.418 704.22 214.739 704.336 206.576Z" fill="#F9C0B4"/>
    <path d="M667.277 214.685C669.57 215.294 671.907 215.849 674.259 216.323C674.839 217.649 675.42 218.976 676 220.302C670.615 224.282 664.171 226.827 657.392 227.843C656.725 227.87 655.404 227.91 654.75 227.937C655.041 224.783 655.273 221.616 655.462 218.461C659.526 217.636 663.779 216.972 667.277 214.685Z" fill="#E9A497"/>
    <path d="M657.39 227.843C664.168 226.828 670.613 224.283 675.998 220.303C677.043 220.886 679.119 222.063 680.164 222.645C673.893 230.767 662.296 230.551 652.702 231.35C654.211 230.131 655.764 228.94 657.39 227.843Z" fill="#FEFDFD"/>
    <path d="M160.94 232.922C165.542 241.586 175.818 246.337 185.978 245.999C186.24 250.223 186.486 254.46 187.154 258.656C182.567 257.005 177.865 255.597 173.467 253.553C167.806 250.899 163.422 246.527 159.228 242.209C159.648 239.082 160.287 236.009 160.94 232.922Z" fill="#C8BADA"/>
    <path d="M204.253 233.342C207.853 234.56 212.309 234.94 214.733 238.067C218.434 242.48 221.439 247.421 223.805 252.578C228.043 262.514 234.734 271.286 241.121 280.085C242.674 282.712 245.983 283.185 248.799 283.916C247.377 285.311 246.012 286.759 244.648 288.208C254.62 290.807 264.664 293.135 274.621 295.788C276.348 299.457 276.015 303.464 275.39 307.335C269.831 308.513 264.141 307.471 258.568 306.97C248.596 306.036 238.595 305.102 228.725 303.41C225.096 301.663 221.685 299.294 219.653 295.91C210.001 279.422 198.462 263.679 192.583 245.539C196.546 244.47 200.9 243.481 203.818 240.557C206.009 238.635 204.892 235.616 204.253 233.342Z" fill="#FCB75C"/>
    <path d="M734.265 251.765C745.47 251.21 756.763 245.267 761.233 235.371C768.999 238.052 772.584 245.429 773.905 252.55C770.16 252.631 766.212 252.536 762.83 254.215C759.143 256.097 756.356 259.224 752.539 260.889C743.699 264.097 733.887 263.488 724.975 266.331C718.081 268.659 715.395 275.631 713.784 281.709C709.894 296.586 702.927 310.542 695.539 324.134C689.922 334.232 682.824 343.6 674.42 351.844C670.21 355.81 664.796 358.342 659.832 361.36C655.492 357.462 651.399 353.319 647.088 349.394C658.874 349.136 670.443 344.696 679.108 337.265C688.862 329.02 694.958 317.825 699.85 306.603C705.075 295.611 708.617 284.01 711.215 272.26C711.999 268.564 712.55 264.246 709.938 261.038C707.862 258.466 704.277 258.019 701.185 257.207C703 260.009 705.206 262.689 706.251 265.87C707.267 270.067 705.757 274.317 704.32 278.257C698.137 293.486 690.357 308.133 682.316 322.577C678.76 329.169 671.618 333.109 664.593 335.911C657.22 338.754 649.861 341.691 642.197 343.776C624.663 345.806 606.984 346.524 589.45 348.514C584.413 348.839 578.738 350.328 574.383 347.174C573.686 343.397 572.554 339.661 572.511 335.816C572.961 332.838 574.398 330.103 575.573 327.328C590.8 325.244 606.287 324.364 621.15 320.33L621.644 320.221C631.514 318.218 641.268 315.687 650.761 312.478C655.478 310.976 660.355 308.877 662.822 304.573C671.981 290.088 677.671 273.884 687.236 259.589C690.343 254.824 694.813 250.898 700.068 248.232C701.795 247.352 703.566 246.539 705.351 245.727C713.755 251.047 724.336 252.266 734.265 251.765ZM584.427 334.652C592.019 338.672 600.989 338.551 609.437 339.065C619.22 339.864 628.945 337.968 638.612 336.777C635.418 334.923 631.601 335.924 628.132 336.182C618.552 337.373 608.783 337.698 599.204 336.358C594.269 335.789 589.435 334.286 584.427 334.652Z" fill="#33D6E2"/>
    <path d="M126.598 252.09C126.525 244.685 132.143 236.996 140.518 236.549C147.194 236.454 150.315 242.695 154.989 246.025C156.382 249.87 157.384 253.822 158.516 257.735C161.724 267.833 164.496 278.054 166.47 288.423C167.254 292.809 168.473 297.141 170.288 301.256C169.62 307.199 171.681 312.993 173.539 318.583C175.368 323.7 181.275 325.541 185.833 328.032C189.636 330.171 193.555 332.134 197.489 334.07C192.336 339.078 187.168 344.074 182.088 349.164C177.4 347.268 172.668 345.481 168.038 343.492C163.437 341.434 158.545 339.309 155.512 335.288C150.141 328.493 147.456 320.303 143.421 312.817C135.075 293.418 126.874 273.262 126.598 252.09Z" fill="#524D8C"/>
    <path d="M650.139 237.767C652.665 239.581 651.837 242.695 652.055 245.253C652.36 259.968 646.771 274.439 637.7 286.352C636.8 287.502 635.61 288.287 634.144 288.721C634.506 287.34 635.102 286.054 635.943 284.863C642.156 276.591 647.12 267.265 648.804 257.207C650.313 250.817 649.544 244.238 650.139 237.767Z" fill="#4E4593"/>
    <path d="M72.0498 255.431C73.6319 249.908 74.7496 243.586 79.6411 239.66C83.7488 240.364 87.334 242.489 91.0063 244.222C100.426 248.689 109.745 253.414 119.702 256.798C121.85 263.539 121.633 270.633 122.315 277.577C123.839 295.162 127.41 312.746 134.754 329.086C138.513 337.438 143.231 345.682 150.358 351.99C156.933 356.552 165.293 357.337 173.219 357.798C171.665 359.287 170.141 360.776 168.617 362.292C168.298 362.603 167.645 363.226 167.326 363.537C167.195 366.881 167.064 370.225 166.948 373.568C157.238 373.582 147.745 371.24 138.455 368.817C127.076 365.608 119.339 356.078 114.912 346.237C107.292 328.72 105.361 309.728 102.633 291.155C101.225 281.259 100.934 269.997 93.0383 262.375C87.6533 256.947 79.7137 255.201 72.0498 255.431Z" fill="#C8BADA"/>
    <path d="M739.953 266.859C749.997 266.21 758.619 261.093 767.749 257.749C771.131 256.368 773.192 259.928 775.195 261.783C775.645 265.655 775.862 269.553 776.225 273.438C763.96 272.382 749.852 273.655 741.07 282.657C733.958 291.05 731.157 301.704 726.962 311.477C718.833 331.824 711.445 353.55 694.84 369.483C687.946 376.78 677.524 379.785 667.509 381.044C659.976 382.073 652.355 380.841 644.807 381.558C639.234 379.569 633.704 377.281 629.088 373.68C641.382 372.367 654.053 374.979 666.057 371.744C675.724 370.499 678.99 361.239 683.156 354.376C697.134 328.114 710.545 301.514 721.49 274.007C724.741 267.672 733.508 267.739 739.953 266.859Z" fill="#C8BADA"/>
    <path d="M663.591 239.568C667.06 243.251 667.612 248.205 668.308 252.875C667.641 253.024 666.291 253.349 665.623 253.512C665.187 253.457 664.331 253.336 663.91 253.281C663.91 248.706 663.867 244.13 663.591 239.568Z" fill="#32255C"/>
    <path d="M640.239 240.894C641.806 243.236 641.908 246.052 641.995 248.746C642.097 263.284 637.075 277.783 628.133 289.668C627.132 291.238 625.535 292.267 623.735 292.876C626.58 286.947 631.617 282.142 633.78 275.874C639.76 265.071 639.586 252.712 640.239 240.894Z" fill="#4E4594"/>
    <path d="M185.983 245.998C187.652 245.917 189.307 245.809 190.976 245.673C192.079 262.094 196.405 279.137 207.987 291.983C213.184 297.466 217.379 303.964 224.055 308.052C221.283 310.705 218.525 313.372 215.811 316.079C210.673 312.681 206.289 308.363 203.096 303.3C194.431 289.682 190.018 274.142 187.159 258.655C186.491 254.459 186.244 250.222 185.983 245.998Z" fill="#FDB75C"/>
    <path d="M190.974 245.674L192.585 245.539C198.463 263.679 210.003 279.422 219.655 295.91C221.687 299.294 225.098 301.663 228.727 303.41C227.188 304.966 225.621 306.51 224.053 308.053C217.376 303.965 213.181 297.467 207.985 291.984C196.402 279.138 192.077 262.095 190.974 245.674Z" fill="#E18B47"/>
    <path d="M762.831 254.215C766.213 252.536 770.161 252.631 773.906 252.55C774.472 255.609 774.82 258.695 775.197 261.782C773.194 259.927 771.133 256.367 767.751 257.748C758.621 261.092 750 266.209 739.955 266.858C733.511 267.738 724.744 267.671 721.492 274.006C710.548 301.513 697.136 328.113 683.158 354.375C678.993 361.238 675.727 370.498 666.06 371.743C660.297 372.081 662.431 365.692 660.922 362.403L659.833 361.36C664.797 358.341 670.211 355.81 674.42 351.844C682.825 343.6 689.922 334.232 695.54 324.133C702.928 310.542 709.895 296.586 713.785 281.708C715.396 275.63 718.081 268.659 724.976 266.33C733.888 263.488 743.7 264.097 752.54 260.888C756.357 259.223 759.144 256.096 762.831 254.215Z" fill="#EBB54E"/>
    <path d="M701.182 257.207C704.274 258.019 707.859 258.466 709.935 261.038C712.547 264.246 711.996 268.565 711.212 272.26C708.614 284.01 705.072 295.612 699.847 306.604C694.955 317.826 688.859 329.021 679.105 337.265C670.44 344.697 658.871 349.137 647.085 349.394C645.431 347.54 643.805 345.658 642.194 343.776C649.858 341.692 657.217 338.754 664.59 335.911C671.615 333.109 678.757 329.17 682.313 322.577C690.354 308.133 698.134 293.486 704.318 278.257C705.754 274.318 707.264 270.067 706.248 265.871C705.203 262.69 702.997 260.009 701.182 257.207Z" fill="#EAB64D"/>
    <path d="M355.151 265.439C360.624 270.015 366.662 273.954 372.816 277.677C378.811 281.427 386.388 279.87 393.151 280.073C452.155 279.965 511.172 280.086 570.175 280.019C573.76 280.005 577.578 280.655 580.176 283.159C585.604 287.992 590.54 293.285 595.736 298.334C603.255 305.685 610.715 313.103 618.307 320.4C619.018 320.386 620.44 320.345 621.151 320.332C606.288 324.366 590.801 325.246 575.575 327.331C570.843 327.655 566.111 327.033 561.394 327.358C558.723 328.468 556.967 330.85 554.368 332.055C550.348 333.774 545.819 334.478 542.132 336.834C538.315 339.189 539.708 345.551 544.063 346.58C547.692 347.203 551.422 346.946 555.109 346.905C560.653 347.717 566.256 348.232 571.685 349.585C584.298 353.484 597.841 352.13 610.875 351.738C622.98 351.386 634.955 348.543 647.09 349.396C651.4 353.322 655.494 357.464 659.834 361.363L660.922 362.405C656.336 362.77 651.749 363.325 647.148 363.447C495.728 363.42 344.294 363.434 192.86 363.447C184.776 363.271 176.531 364.341 168.621 362.297C170.145 360.78 171.669 359.291 173.222 357.802C176.183 354.919 179.158 352.049 182.09 349.166C187.171 344.076 192.338 339.081 197.491 334.072C198.928 332.651 200.379 331.256 201.816 329.862C206.49 325.273 211.12 320.657 215.809 316.081C218.523 313.374 221.281 310.707 224.053 308.054C225.621 306.511 227.188 304.967 228.727 303.411C238.597 305.103 248.598 306.037 258.569 306.971C264.143 307.472 269.833 308.514 275.392 307.336C281.546 305.292 288.427 305.82 294.378 303.262C298.819 301.299 299.501 296.398 300.401 292.419C296.729 290.957 292.854 291.958 289.196 292.838C289.225 292.067 289.297 290.51 289.341 289.738C283.709 289.901 279.152 293.068 274.623 295.789C264.666 293.136 254.621 290.808 244.65 288.209C246.014 286.76 247.378 285.312 248.801 283.917C251.036 281.156 254.36 279.531 258.119 279.951C285.756 280.262 313.407 279.68 341.043 280.235C339.504 281.995 336.297 283.484 337.153 286.165C334.526 285.379 331.783 284.621 329.025 285.203C320.562 286.53 312.1 287.938 303.667 289.346C304.19 292.662 305.119 295.911 306.599 298.971C307.847 301.8 308.66 304.764 309.401 307.742C310.504 307.661 312.71 307.499 313.799 307.431C312.913 304.318 311.984 301.218 311.288 298.077C310.823 295.519 310.591 292.933 310.359 290.361C316.353 289.495 322.377 288.249 328.488 288.669C329.779 287.735 331.144 286.435 332.871 287.396C336.529 294.381 340.216 301.367 343.627 308.46C334.918 310.68 326.209 312.887 317.485 315.052C316.208 312.67 314.945 310.287 313.668 307.905C312.449 308.162 309.996 308.649 308.776 308.907C309.676 312.48 310.736 316.027 311.941 319.533C324.569 317.137 336.485 312.237 349.186 310.206C349.97 308.636 350.739 307.066 351.479 305.482C360.595 298.348 370.174 291.755 379.188 284.513C371.161 279.288 363.106 274.089 354.992 268.986C354.353 269.176 353.076 269.555 352.437 269.744C353.366 268.323 354.223 266.861 355.151 265.439ZM519.155 297.278C523.611 302.409 528.358 307.688 533.902 311.736C549.158 307.675 564.268 303.045 579.523 298.943C574.428 294.463 569.086 290.226 563.76 286.002C548.882 289.711 534.048 293.61 519.155 297.278ZM472.214 309.394C469.21 313.577 467.758 318.518 464.957 322.809C463.375 324.975 462.939 327.534 462.852 330.092C477.323 330.038 491.824 329.93 506.295 329.848C507.921 330.051 509.532 330.376 511.114 330.837C507.5 332.624 503.799 334.221 500.126 335.872C500.286 335.317 500.62 334.221 500.794 333.666C489.24 333.774 477.657 333.165 466.118 333.774C463.563 335.534 462.794 338.823 461.313 341.355C460.37 343.913 458.323 346.431 458.73 349.206C462.359 350.208 466.219 349.816 469.964 349.829C489.835 349.328 509.735 350.1 529.606 349.626L530.477 348.976C530.666 344.739 528.314 340.678 527.472 336.522C526.398 336.211 524.25 335.615 523.161 335.317C525.077 334.343 526.964 333.368 528.895 332.42C527.588 331.527 526.282 330.62 524.903 329.848C525.223 327.29 524.947 324.731 524.352 322.241C530.912 324.136 537.328 327.601 544.179 327.899L543.947 326.545C536.936 323.066 529.229 321.022 521.855 318.342L523.263 318.653C522.421 315.404 521.405 312.21 520.433 308.988C510.04 306.917 499.371 309.164 488.877 308.081C483.362 307.959 477.323 307.187 472.214 309.394ZM249.919 324.515C246.043 323.161 241.848 323.229 237.784 323.418C234.199 323.121 233.357 327.006 231.891 329.239L233.763 329.307C230.556 330.282 227.217 331.134 224.488 333.084C225.693 333.07 228.103 333.057 229.307 333.043C227.653 338.214 224.285 342.722 222.456 347.812C223.066 350.059 225.853 349.328 227.696 349.64C248.975 349.788 270.254 349.436 291.533 349.761C294.334 349.775 297.121 349.504 299.908 349.22C297.687 340.786 295.96 332.082 292.708 323.973C283.158 322.66 273.287 323.919 263.621 323.486C265.145 323.445 268.86 321.171 265.478 320.67C260.122 321.212 255.086 323.202 249.919 324.515Z" fill="#E6E6E6"/>
    <path d="M641.746 284.822C646.739 279.529 650.673 273.478 655.506 268.063L656.551 269.485C649.758 283.455 644.243 298.454 632.965 309.974C627.638 312.79 622.253 316.539 615.735 315.714C619.901 311.679 626.099 310.502 630.541 306.887C635.505 300.119 635.795 291.117 641.746 284.822Z" fill="#322257"/>
    <path d="M352.436 269.742C353.075 269.553 354.352 269.174 354.991 268.984C363.104 274.088 371.16 279.286 379.187 284.511C370.173 291.753 360.593 298.346 351.478 305.48C350.723 305.872 349.214 306.671 348.459 307.064C344.946 299.984 340.955 293.107 337.152 286.163C336.295 283.482 339.503 281.993 341.042 280.233C344.961 276.849 349.068 273.627 352.436 269.742Z" fill="#413980"/>
    <path d="M329.025 285.202C331.783 284.62 334.526 285.378 337.153 286.163C340.956 293.108 344.948 299.985 348.46 307.064C349.215 306.672 350.725 305.873 351.479 305.481C350.739 307.064 349.97 308.635 349.186 310.205C336.486 312.236 324.569 317.136 311.941 319.532C310.736 316.026 309.677 312.479 308.777 308.905C309.996 308.648 312.449 308.161 313.668 307.904C314.946 310.286 316.208 312.669 317.486 315.051C326.209 312.885 334.918 310.679 343.627 308.459C340.216 301.365 336.529 294.38 332.871 287.395C331.144 286.434 329.78 287.734 328.488 288.668C322.377 288.248 316.353 289.493 310.359 290.36C310.591 292.932 310.823 295.517 311.288 298.076C310.127 298.306 307.775 298.753 306.599 298.969C305.119 295.91 304.19 292.661 303.667 289.344C312.101 287.937 320.563 286.529 329.025 285.202Z" fill="#FDFDFC"/>
    <path d="M274.622 295.788C279.15 293.067 283.708 289.899 289.34 289.737C289.296 290.509 289.224 292.065 289.195 292.837C292.852 291.957 296.728 290.955 300.4 292.417C299.5 296.397 298.818 301.298 294.376 303.26C288.425 305.819 281.545 305.291 275.391 307.335C276.015 303.463 276.349 299.456 274.622 295.788Z" fill="#F6BCAF"/>
    <path d="M306.597 298.971C307.773 298.755 310.124 298.308 311.285 298.078C311.982 301.218 312.911 304.318 313.797 307.432C312.708 307.5 310.502 307.662 309.399 307.743C308.658 304.765 307.845 301.801 306.597 298.971Z" fill="#40388D"/>
    <path d="M603.474 297.874C606.798 297.183 609.555 298.74 612.357 300.148C615.652 300.689 619.019 300.717 622.372 300.947C621.937 301.488 621.08 302.571 620.645 303.126C615.231 303.194 609.918 302.003 605.273 299.376C606.449 304.02 611.979 305.157 614.2 309.069C608.365 308.27 602.995 303.681 603.474 297.874Z" fill="#4B4392"/>
    <path d="M472.213 309.395C477.322 307.189 483.36 307.96 488.876 308.082C499.37 309.165 510.038 306.918 520.431 308.989C521.404 312.211 522.42 315.406 523.262 318.655L521.854 318.343C515.409 316.584 509.139 314.215 502.52 313.077C508.529 318.235 517.122 319.142 524.35 322.242C524.945 324.733 525.221 327.291 524.902 329.85C520.504 326.493 515.394 328.429 511.113 330.838C509.53 330.378 507.919 330.053 506.294 329.85C491.822 329.931 477.322 330.039 462.851 330.094C462.938 327.535 463.373 324.977 464.955 322.811C467.757 318.519 469.208 313.578 472.213 309.395Z" fill="#F4F7FE"/>
    <path d="M229.307 333.04C240.803 330.062 252.212 326.786 263.62 323.483C273.287 323.916 283.157 322.657 292.708 323.97C295.96 332.079 297.687 340.783 299.908 349.216C297.121 349.501 294.334 349.771 291.532 349.758C270.254 349.433 248.975 349.785 227.696 349.636C225.853 349.325 223.066 350.056 222.456 347.809C224.285 342.719 227.652 338.211 229.307 333.04Z" fill="#F4F7FE"/>
    <path d="M466.116 333.774C477.655 333.165 489.238 333.774 500.792 333.666C500.618 334.221 500.284 335.317 500.124 335.872C498.862 336.495 497.628 337.118 496.38 337.754C500.095 339.527 503.492 342.329 507.716 342.938C513.115 340.881 517.992 337.822 523.16 335.317C524.248 335.615 526.396 336.211 527.471 336.522C528.312 340.678 530.664 344.739 530.475 348.976L529.604 349.626C509.733 350.1 489.833 349.328 469.963 349.829C466.218 349.815 462.357 350.208 458.728 349.206C458.322 346.431 460.368 343.913 461.312 341.355C462.792 338.823 463.561 335.534 466.116 333.774Z" fill="#F4F7FE"/>
    <path d="M502.522 313.075C509.141 314.212 515.411 316.581 521.856 318.341C529.229 321.022 536.937 323.066 543.947 326.545L544.18 327.898C537.329 327.601 530.913 324.135 524.352 322.24C517.124 319.14 508.531 318.233 502.522 313.075Z" fill="#B7BCE4"/>
    <path d="M249.916 324.515C255.083 323.202 260.12 321.212 265.476 320.67C268.858 321.171 265.142 323.445 263.618 323.486C252.209 326.789 240.801 330.065 229.305 333.043C228.1 333.057 225.691 333.07 224.486 333.084C227.215 331.134 230.553 330.282 233.761 329.307C239.189 327.845 244.531 326.126 249.916 324.515Z" fill="#B6BBE2"/>
    <path d="M231.891 329.237C233.357 327.003 234.199 323.118 237.784 323.416C241.848 323.226 246.043 323.159 249.918 324.512C244.533 326.123 239.192 327.843 233.763 329.305L231.891 329.237Z" fill="#F6F7FC"/>
    <path d="M185.37 325.515C190.856 326.95 196.328 328.412 201.815 329.861C200.378 331.255 198.927 332.649 197.49 334.071C193.556 332.135 189.637 330.172 185.834 328.033L185.37 325.515Z" fill="#321D4C"/>
    <path d="M511.115 330.833C515.397 328.423 520.507 326.487 524.905 329.844C526.283 330.616 527.59 331.523 528.896 332.417C526.966 333.364 525.079 334.339 523.163 335.313C517.995 337.818 513.118 340.877 507.719 342.935C503.495 342.326 500.099 339.523 496.383 337.75C497.631 337.114 498.865 336.491 500.128 335.868C503.8 334.217 507.501 332.62 511.115 330.833Z" fill="#3B357A"/>
    <path d="M554.369 332.051C556.967 330.846 558.723 328.464 561.394 327.354C566.111 327.029 570.843 327.652 575.575 327.327C574.399 330.102 572.962 332.836 572.513 335.814C572.556 339.659 573.688 343.395 574.385 347.172C568.013 346.143 561.51 346.089 555.109 346.901C551.422 346.942 547.692 347.199 544.063 346.576C539.709 345.547 538.315 339.185 542.133 336.83C545.82 334.474 550.348 333.77 554.369 332.051Z" fill="#F5BBAE"/>
    <path d="M584.427 334.65C589.435 334.285 594.268 335.787 599.203 336.356C608.783 337.696 618.552 337.371 628.132 336.18C631.601 335.923 635.418 334.921 638.611 336.776C628.944 337.967 619.219 339.862 609.436 339.063C600.989 338.549 592.019 338.671 584.427 334.65Z" fill="#EEB950"/>
    <path d="M589.45 348.514C606.984 346.524 624.663 345.807 642.197 343.776C643.808 345.658 645.434 347.54 647.089 349.394C634.954 348.541 622.98 351.384 610.874 351.736C597.84 352.129 584.297 353.482 571.684 349.584C566.255 348.23 560.653 347.716 555.108 346.903C561.509 346.091 568.012 346.145 574.384 347.174C578.738 350.328 584.413 348.839 589.45 348.514Z" fill="#CBCBCB"/>
    <path d="M167.326 363.541C167.645 363.229 168.299 362.607 168.618 362.295C176.529 364.339 184.773 363.27 192.858 363.446C344.292 363.433 495.726 363.419 647.145 363.446C651.746 363.324 656.333 362.769 660.92 362.404C662.429 365.693 660.295 372.083 666.058 371.744C654.054 374.98 641.383 372.367 629.088 373.68C603.165 372.773 577.198 373.599 551.26 373.274C431.788 373.301 312.33 373.287 192.872 373.301C188.721 373.369 184.599 373.897 180.549 374.709C176.151 373.382 171.506 373.436 166.949 373.572C167.065 370.228 167.195 366.884 167.326 363.541Z" fill="#CCCBCC"/>
    <path d="M303.593 12.9184C329.59 4.62017 357.124 1.76387 384.427 0.220649C409.567 0.112353 434.765 -0.645719 459.817 1.46605C501.809 3.82149 544.628 8.45115 583.513 24.3571C591.279 28.7973 599.784 32.2357 606.548 38.043C626.042 51.932 638.147 72.3052 651.065 91.2434C655.826 96.3604 658.729 102.777 664.085 107.407C668.541 111.414 671.749 116.476 676.452 120.253C685.204 127.035 693.826 134.061 703.479 139.733C712.217 143.74 720.055 149.358 729.301 152.431C738.445 157.128 748.315 160.472 757.358 165.386C768.854 171.992 779.987 179.22 789.929 187.776C804.023 198.213 814.663 212.048 824.054 226.207C835.564 245.132 843.373 266.561 843.46 288.478C844.839 295.693 843.17 302.908 842.923 310.137C839.135 334.003 828.699 357.259 811.557 375.507C797.971 389.206 778.84 396.367 760.217 402.039C721.637 412.449 681.155 413.911 641.239 413.316C602.179 413.587 563.337 409.458 524.568 405.518C483.389 400.929 442.632 393.755 401.83 386.973C386.923 384.82 371.857 384.699 356.863 383.561C337.428 382.695 318.108 385.132 298.687 384.82C287.642 386.147 276.494 385.903 265.448 387.149C253.764 387.149 242.225 388.963 230.54 388.963C218.972 390.52 207.273 389.843 195.646 390.479C187.489 391.616 179.244 391.142 171.029 391.223C153.451 391.643 135.816 390.032 118.688 386.282C85.4056 378.052 54.097 361.835 30.5684 338.213C13.7166 320.804 0.6822 298.806 0 274.873C0.928953 264.355 2.09014 253.539 7.31551 243.995C18.2742 223.256 37.5936 207.296 58.7563 195.803C72.7922 188.06 87.7135 181.806 102.94 176.418C106.902 175.444 110.792 171.545 115.001 173.535C106.089 179.938 102.257 190.429 100.283 200.365C98.9916 208.284 98.2368 217.097 102.983 224.217C97.3078 229.889 93.9839 237.078 91.0084 244.225C87.3361 242.492 83.7509 240.367 79.6432 239.663C74.7517 243.589 73.634 249.911 72.0519 255.434C66.8411 279.611 67.741 305.128 75.6661 328.71C81.7914 346.836 94.521 363.852 113.303 372.15C134.234 381.544 158.619 379.947 180.551 374.708C184.6 373.896 188.723 373.368 192.874 373.3C312.331 373.287 431.789 373.3 551.261 373.273C577.199 373.598 603.166 372.772 629.09 373.679C633.706 377.28 639.236 379.568 644.81 381.558C664.187 388.99 686.351 390.181 706.411 384.374C730.462 377.646 750.739 361.198 762.743 340.785C774.761 320.384 778.826 296.464 776.227 273.438C775.865 269.553 775.647 265.654 775.197 261.783C774.819 258.696 774.471 255.61 773.905 252.55C772.584 245.43 768.999 238.052 761.233 235.372C766.081 222.566 761.582 208.663 755.282 197.022C751.45 190.619 747.27 183.823 740.39 179.884C732 175.606 721.826 178.72 714.423 183.349C708.283 187.37 702.129 192.433 699.835 199.309C698.616 202.572 702.419 204.494 704.335 206.579C704.219 214.742 701.563 224.42 707.659 231.311C706.454 236.171 700.808 240.99 705.351 245.728C703.566 246.54 701.795 247.352 700.068 248.232C699.458 245.917 698.863 243.602 698.239 241.301C696.7 236.279 695.249 230.918 691.431 226.925C688.311 224.353 683.913 224.055 680.168 222.647C679.123 222.065 677.047 220.887 676.002 220.305C675.421 218.979 674.841 217.652 674.26 216.325C684.305 215.256 690.241 206.159 692.796 197.888C694.871 190.497 694.813 181.183 688.165 175.755C676.162 166.035 653.707 168.865 647.03 182.984C645.405 185.583 647.437 187.979 649.788 189.265C647.437 198.903 644.969 212.169 655.463 218.464C655.275 221.618 655.042 224.786 654.752 227.94C655.405 227.913 656.726 227.872 657.394 227.845C655.768 228.942 654.215 230.133 652.706 231.351C647.132 232.001 641.297 233.45 637.088 237.105C633.444 240.963 632.428 246.256 629.511 250.547C623.748 259.116 617.144 267.252 612.296 276.335C609.495 281.614 610.133 287.923 606.955 293.04C604.589 296.681 599.842 297.574 595.735 298.332C590.538 293.283 585.603 287.99 580.175 283.158C577.577 280.653 573.759 280.003 570.174 280.017C511.171 280.085 452.153 279.963 393.15 280.071C386.386 279.868 378.81 281.425 372.815 277.675C366.661 273.952 360.622 270.013 355.15 265.438C354.221 266.859 353.365 268.321 352.436 269.742C349.069 273.627 344.961 276.849 341.042 280.234C313.406 279.679 285.755 280.261 258.118 279.949C254.359 279.53 251.035 281.154 248.8 283.916C245.984 283.185 242.674 282.711 241.121 280.085C234.735 271.286 228.043 262.514 223.805 252.577C221.439 247.42 218.435 242.479 214.733 238.066C212.309 234.939 207.853 234.56 204.254 233.341C203.368 231.73 202.599 230.065 202.25 228.279C204.631 230.228 207.2 231.974 209.9 233.504C209.885 227.994 209.435 220.982 215.053 217.557C218.043 215.513 223.791 215.405 224.241 211.222C224.11 206.877 224.124 202.558 224.661 198.24C221.671 194.774 218.812 189.021 213.079 190.443C216.722 189.035 220.583 186.828 221.207 182.835C221.091 180.209 218.783 178.327 216.591 177.027C207.345 171.762 194.267 172.465 186.313 179.545C179.302 185.447 177.633 194.436 175.819 202.612C171.61 208.054 162.973 209.232 159.432 215.432C156.122 220.969 158.27 227.561 160.941 232.922C160.288 236.008 159.649 239.081 159.228 242.208C158.865 247.366 158.619 252.55 158.517 257.735C157.385 253.823 156.383 249.87 154.99 246.026C153.089 240.083 149.75 234.492 144.351 230.715C149.474 226.492 150.389 219.317 145.86 214.39C147.965 207.391 149.939 200.081 147.225 192.933C150.926 191.377 154.569 188.371 154.54 184.297C154.322 178.422 148.821 174.158 143.451 172.005C135.511 168.621 126.338 169.393 118.267 171.992C118.964 169.284 122.215 168.892 124.407 167.66C141.651 159.294 158.532 149.737 172.132 136.633C176.646 133.601 180.565 129.973 183.831 125.79C208.55 101.112 222.891 69.1375 247.827 44.6491C249.903 42.957 252.167 41.4679 254.156 39.6675C267.451 26.4824 285.74 19.1725 303.593 12.9184ZM399 46.7203C398.39 46.6526 397.185 46.5172 396.576 46.4495C395.763 49.5766 398.347 56.2503 393.136 56.1555C348.227 56.0743 303.332 56.142 258.423 56.1149C258.336 56.5752 258.133 57.4957 258.031 57.956C257.131 59.797 256.173 61.6922 256.318 63.7904C256.464 117.072 256.246 170.367 256.449 223.662C255.985 226.18 259.236 226.302 261.065 226.262C365.906 226.058 470.776 226.505 575.603 226.004C576.198 171.924 575.646 117.844 575.951 63.7633C575.559 61.9358 576.546 59.3773 574.717 58.0913C574.18 57.604 573.106 56.6293 572.569 56.142C533.567 56.0879 494.58 56.142 455.579 56.1149C449.004 56.0337 442.399 56.4127 435.853 55.7088C435.548 52.8931 435.81 49.8338 434.024 47.3836C431.455 45.3801 427.159 43.1194 424.793 46.6526C424.27 46.6661 423.225 46.6796 422.688 46.6796C422.398 49.563 422.253 52.4735 421.541 55.3027C418.348 57.1031 414.11 55.8171 410.525 55.8713C410.336 52.7578 410.176 49.6442 410.031 46.5307C409.363 46.5713 408.014 46.6255 407.346 46.6661C405.14 44.1482 401.163 44.1753 399 46.7203Z" fill="#F3F3F3"/>
    <path d="M396.574 46.4489C397.184 46.5166 398.388 46.652 398.998 46.7197C398.475 49.4948 399.796 52.8114 403.294 52.8655C406.705 52.6489 407.997 49.4135 407.344 46.6655C408.012 46.6249 409.362 46.5707 410.029 46.5301C410.174 49.6437 410.334 52.7572 410.523 55.8707C414.108 55.8166 418.346 57.1026 421.54 55.3022C422.251 52.4729 422.396 49.5625 422.686 46.679C423.223 46.679 424.268 46.6655 424.791 46.652C424.588 47.2341 424.167 48.3983 423.964 48.9804C424.747 50.2528 425.56 51.5118 426.388 52.7572C426.126 53.0956 425.618 53.759 425.357 54.0838C427.447 54.8013 429.769 54.6524 431.816 53.8131C431.569 53.5017 431.061 52.879 430.815 52.5542C431.961 50.8756 432.977 49.1157 434.022 47.383C435.808 49.8332 435.546 52.8926 435.851 55.7083C442.397 56.4122 449.002 56.0332 455.577 56.1144C494.578 56.1415 533.565 56.0873 572.567 56.1415C573.104 56.6288 574.178 57.6035 574.715 58.0908C534.03 57.5764 493.345 58.0367 452.659 57.8742C387.792 57.9013 322.911 57.8201 258.029 57.9555C258.131 57.4952 258.334 56.5747 258.421 56.1144C303.33 56.1415 348.225 56.0738 393.134 56.155C398.345 56.2498 395.761 49.576 396.574 46.4489Z" fill="#C3C3C2"/>
    <path d="M425.361 54.0858C425.622 53.7609 426.13 53.0976 426.391 52.7591C427.509 52.705 429.715 52.6102 430.818 52.5561C431.065 52.881 431.573 53.5037 431.82 53.815C429.773 54.6543 427.451 54.8032 425.361 54.0858Z" fill="#E9E9F5"/>
    <path d="M258.033 57.957C322.915 57.8217 387.796 57.9029 452.663 57.8758C493.349 58.0383 534.034 57.578 574.719 58.0924C576.548 59.3784 575.561 61.9369 575.953 63.7644C575.648 117.845 576.2 171.925 575.604 226.005C470.778 226.506 365.908 226.059 261.067 226.262C259.238 226.303 255.986 226.181 256.451 223.663C256.248 170.368 256.465 117.073 256.32 63.7915C256.175 61.6932 257.133 59.7981 258.033 57.957ZM263.055 64.2923C263.171 116.139 262.896 167.972 263.2 219.805C365.022 219.684 466.859 219.792 568.695 219.765C568.826 167.918 568.971 116.071 568.623 64.2382C466.772 64.36 364.921 64.2382 263.055 64.2923Z" fill="#FEFEFF"/>
    <path d="M263.057 64.2911C364.922 64.2369 466.773 64.3588 568.624 64.2369C568.973 116.07 568.828 167.917 568.697 219.764C466.86 219.791 365.024 219.682 263.202 219.804C262.897 167.971 263.173 116.138 263.057 64.2911ZM328.374 140.437C335.341 140.504 342.323 140.45 349.304 140.491C358.638 140.383 367.971 140.491 377.304 140.491C382.645 140.369 387.987 140.423 393.328 140.477C401.456 140.261 409.585 140.64 417.713 140.545C424.695 140.315 431.705 140.735 438.687 140.234C438.411 116.422 438.702 92.6105 438.542 68.7989C401.892 68.7042 365.242 68.8666 328.592 68.7312C328.127 92.624 328.577 116.53 328.374 140.437ZM441.634 140.45C455.22 140.491 468.806 140.464 482.391 140.464C482.725 134.034 482.929 127.604 483.161 121.174C476.615 123.15 469.909 126.115 462.854 125.099C457.266 124.233 458.384 117.735 459.066 113.958C460.793 107.704 462.274 100.936 466.744 95.8188C468.152 96.1707 470.983 96.8747 472.391 97.2266L472.826 95.8865C472.55 101.274 470.431 106.405 470.504 111.833C478.458 111.508 483.451 103.44 491.696 103.454C490.447 106.486 492.537 109.64 494.831 111.698C497.603 112.821 499.301 109.491 501.246 108.259L500.201 107.582L501.812 108.097C504.149 109.762 506.617 111.292 509.302 112.469C511.871 109.099 512.292 104.929 509.302 101.667C516.095 103.9 523.265 106.093 528.621 110.791C530.755 112.564 530.915 115.366 531.495 117.803C532.802 125.275 534.094 132.748 534.834 140.288C540.524 140.572 546.228 140.572 551.918 140.301C551.686 116.476 551.889 92.6376 551.802 68.7989C515.137 68.6906 478.487 68.8531 441.822 68.7177C441.416 92.624 441.822 116.544 441.634 140.45ZM293.146 84.4612C284.728 86.749 282.696 98.4856 290.142 102.966C296.964 108.083 308.489 103.034 308.329 94.8035C308.895 87.4664 300.331 82.1735 293.146 84.4612ZM293.161 114.297C284.916 116.652 282.318 128.443 290.026 132.775C296.456 137.662 307.4 133.763 308.343 126.006C309.897 118.317 300.912 111.806 293.161 114.297ZM521.132 137.404C519.869 139.097 520.159 140.18 521.988 140.613C523.236 138.921 522.946 137.838 521.132 137.404ZM328.316 142.454C328.447 166.279 328.432 190.104 328.33 213.916C332.699 214.064 337.097 214.078 341.481 213.983C344.384 213.997 347.301 214.01 350.233 214.01C351.627 214.01 354.414 213.997 355.807 213.997C365.677 214.051 375.547 214.037 385.418 214.01L387.45 214.024C400.063 214.037 412.676 214.037 425.29 214.024C429.702 214.024 434.115 214.037 438.527 214.024C438.615 190.145 438.629 166.252 438.542 142.359C401.805 142.4 365.053 142.224 328.316 142.454ZM441.59 142.535C441.706 166.319 441.764 190.104 441.576 213.875C449.428 214.173 457.295 213.983 465.162 214.024C488.139 214.024 511.131 214.064 534.108 213.997C540.001 214.037 545.909 214.024 551.802 214.051C551.816 190.158 551.787 166.265 551.816 142.373C515.079 142.44 478.327 142.102 441.59 142.535ZM293.538 144.322C286.194 146.028 282.725 155.287 287.66 160.742C292.319 167.335 304.773 165.94 307.56 158.454C311.537 150.576 302.233 141.303 293.538 144.322ZM291.811 175.105C283.363 178.137 283.334 190.578 291.564 193.84C298.299 197.387 307.661 192.96 308.431 185.759C309.751 177.677 299.504 170.936 291.811 175.105Z" fill="#3B347A"/>
    <path d="M328.372 140.438C328.576 116.532 328.126 92.6255 328.59 68.7327C365.24 68.868 401.89 68.7056 438.54 68.8004C438.7 92.6119 438.41 116.424 438.686 140.235C431.704 140.736 424.693 140.316 417.711 140.546C416.855 131.937 415.055 123.165 410.106 115.72C408.93 113.54 406.259 112.877 404.009 112.078C407.377 105.255 401.484 99.1097 400.903 92.4224C400.163 87.2919 400.86 81.6064 397.376 77.2068C394.851 73.6466 389.843 73.4165 385.764 72.8479C378.695 71.5619 371.525 76.4352 369.841 82.7976C368.695 86.7098 369.275 90.7844 369.42 94.7643C366.053 99.3263 363.469 104.389 362.903 109.966C364.079 111.279 365.269 112.593 366.459 113.906C361.757 115.72 357.446 119.023 356.154 123.801C354.601 129.609 352.394 135.24 349.303 140.492C342.321 140.452 335.339 140.506 328.372 140.438Z" fill="#BFD2FC"/>
    <path d="M441.585 142.537C478.322 142.103 515.074 142.442 551.811 142.374C551.782 166.267 551.811 190.16 551.796 214.053C545.903 214.026 539.996 214.039 534.103 213.998C536.353 207.731 531.737 202.275 529.023 196.915C526.671 192.813 525.133 188.251 521.997 184.596C519.123 182.105 515.611 180.427 512.345 178.45C510.908 177.638 509.442 176.839 507.961 176.122C507.091 175.783 505.349 175.12 504.478 174.782C503.418 169.056 508.252 165.035 510.864 160.419C510.443 159.85 509.602 158.713 509.181 158.145C508.586 154.476 509.95 150.063 507.25 146.977C503.084 144.296 497.728 146.11 493.127 146.489C492.271 146.002 490.558 145.041 489.702 144.567C487.147 148.709 488.671 153.542 488.715 158.036C488.541 159.85 487.365 162.057 489.179 163.465C492.489 166.632 494.884 170.531 494.405 175.134C493.098 175.824 491.806 176.528 490.515 177.232C488.032 178.586 485.536 179.939 483.025 181.252C479.483 183.324 474.693 184.826 473.692 189.104C470.789 197.402 467.929 205.7 465.157 214.026C457.29 213.985 449.423 214.174 441.57 213.877C441.759 190.106 441.701 166.321 441.585 142.537Z" fill="#BFD2FC"/>
    <path d="M441.63 140.452C441.819 116.546 441.413 92.6263 441.819 68.7199C478.484 68.8553 515.134 68.6928 551.798 68.8011C551.885 92.6398 551.682 116.478 551.914 140.304C546.225 140.574 540.52 140.574 534.83 140.29C534.09 132.75 532.798 125.278 531.492 117.805C530.911 115.368 530.752 112.566 528.618 110.793C523.262 106.096 516.092 103.903 509.299 101.669C508.689 102.116 507.484 102.996 506.889 103.429C506.86 100.843 506.323 98.1494 507.107 95.6179C508.326 92.8022 511.041 90.9477 513.261 88.863C512.811 88.3756 511.897 87.3874 511.447 86.8866C512.594 83.5429 514.51 79.4818 511.824 76.2871C506.773 73.9993 499.922 70.6692 494.9 74.7845C491.01 77.4377 491.968 82.4735 491.591 86.3722C493.202 92.0442 498.587 97.5808 494.552 103.564C493.84 103.537 492.403 103.483 491.692 103.456C483.448 103.442 478.455 111.51 470.5 111.835C470.428 106.407 472.547 101.276 472.823 95.8887C472.997 95.1848 473.36 93.7498 473.549 93.0324C476.423 92.3961 479.442 91.6381 480.733 88.863C478.614 88.9848 476.51 89.1472 474.405 89.3097C474.855 88.0508 475.305 86.8053 475.769 85.5464C477.351 85.9119 478.948 86.2774 480.545 86.6564C480.182 85.1944 479.805 83.7324 479.456 82.2704C478.309 82.1892 477.163 82.108 476.031 82.0268C475.9 80.0639 475.769 78.0875 475.639 76.1247C475.203 76.6797 474.303 77.7762 473.868 78.3312C473.476 77.8845 472.707 77.0046 472.315 76.5578C470.457 76.4766 468.599 76.3548 466.756 76.2736C464.999 82.8525 470.965 89.797 466.741 95.821C462.271 100.938 460.79 107.706 459.063 113.961C458.381 117.737 457.263 124.235 462.851 125.102C469.905 126.117 476.611 123.152 483.157 121.176C482.925 127.606 482.722 134.036 482.388 140.466C468.802 140.466 455.216 140.493 441.63 140.452Z" fill="#FAEDE5"/>
    <path d="M369.839 82.7959C371.523 76.4335 378.693 71.5602 385.762 72.8462C389.84 73.4148 394.848 73.6449 397.374 77.2051C400.857 81.6046 400.161 87.2902 400.901 92.4207C401.481 99.108 407.374 105.254 404.007 112.076C399.551 111.318 395.051 110.79 390.581 110.114C390.116 107.745 389.768 105.376 389.507 102.98C393.222 99.7171 395.661 95.0739 395.066 90.2277C392.961 87.236 390.363 84.5692 388.244 81.5911C384.978 85.219 379.753 85.8688 375.572 88.1565C372.568 93.1788 376.109 98.932 379.506 102.925C379.114 105.7 378.737 108.489 378.025 111.224C374.077 111.724 370.158 112.496 366.457 113.904C365.267 112.591 364.077 111.278 362.901 109.965C363.467 104.387 366.051 99.3246 369.418 94.7626C369.273 90.7827 368.692 86.7081 369.839 82.7959Z" fill="#23138A"/>
    <path d="M494.897 74.7835C499.919 70.6683 506.77 73.9984 511.822 76.2861C514.507 79.4809 512.591 83.542 511.444 86.8857C509.572 84.8822 508.004 82.6486 506.538 80.3879C503.243 81.3896 499.919 82.256 496.581 83.0818C495.115 84.4355 493.533 85.6809 491.588 86.3713C491.965 82.4726 491.007 77.4368 494.897 74.7835Z" fill="#221489"/>
    <path d="M466.757 76.2703C468.6 76.3515 470.458 76.4734 472.316 76.5546C472.708 77.0013 473.477 77.8812 473.869 78.3279C474.305 77.7729 475.205 76.6764 475.64 76.1214C475.771 78.0843 475.901 80.0607 476.032 82.0235C477.164 82.1048 478.311 82.186 479.458 82.2672C479.806 83.7292 480.183 85.1912 480.546 86.6532C478.95 86.2742 477.353 85.9087 475.771 85.5432C475.306 86.8021 474.856 88.0475 474.406 89.3065C476.511 89.144 478.616 88.9816 480.735 88.8597C479.443 91.6348 476.424 92.3929 473.55 93.0291C473.361 93.7466 472.998 95.1815 472.824 95.8855L472.389 97.2256C470.981 96.8737 468.15 96.1697 466.742 95.8178C470.966 89.7938 465.001 82.8493 466.757 76.2703Z" fill="#F9BFB6"/>
    <path d="M496.581 83.0818C499.919 82.256 503.243 81.3897 506.538 80.3879C508.004 82.6486 509.572 84.8822 511.444 86.8857C511.894 87.3866 512.809 88.3748 513.259 88.8621C511.038 90.9468 508.324 92.8014 507.104 95.6171C506.32 98.1485 506.858 100.842 506.887 103.428C505.101 104.903 503.447 106.501 501.806 108.098L500.195 107.584C498.192 106.379 496.378 104.958 494.549 103.563C498.584 97.5799 493.199 92.0433 491.588 86.3713C493.533 85.6809 495.115 84.4355 496.581 83.0818ZM496.668 85.6674C497.104 87.3866 498.236 87.6708 500.079 86.5337C499.629 84.8145 498.497 84.5303 496.668 85.6674ZM503.505 85.911C502.779 88.077 503.621 88.7809 506.03 88.0228C506.727 85.8433 505.885 85.1394 503.505 85.911ZM498.047 91.5424C497.002 93.6 500.137 95.4817 502.111 95.2651C504.172 93.6948 499.716 91.1228 498.047 91.5424Z" fill="#F8BDB0"/>
    <path d="M388.245 81.5922C390.364 84.5703 392.962 87.2371 395.066 90.2288C395.662 95.075 393.223 99.7182 389.507 102.981C389.769 105.377 390.117 107.746 390.581 110.115C391.496 114.352 391.975 118.657 392.222 122.961C386.575 122.948 380.929 122.799 375.312 122.257C375.704 118.481 376.879 114.839 378.026 111.225C378.737 108.49 379.115 105.702 379.507 102.926C376.11 98.9331 372.568 93.1799 375.573 88.1576C379.753 85.8699 384.979 85.2201 388.245 81.5922Z" fill="#F7BDB1"/>
    <path d="M293.142 84.4622C300.327 82.1745 308.891 87.4675 308.325 94.8045C308.485 103.035 296.96 108.084 290.138 102.967C282.692 98.4866 284.724 86.75 293.142 84.4622ZM292.272 87.0614C292.388 91.8805 292.417 96.7133 292.228 101.532C295.247 102.128 298.339 102.196 301.416 102.047C301.489 96.9705 301.459 91.8941 301.358 86.8312C298.324 86.8177 295.291 86.8854 292.272 87.0614Z" fill="#347EF7"/>
    <path d="M496.672 85.6678C498.501 84.5307 499.633 84.815 500.083 86.5342C498.239 87.6714 497.107 87.3871 496.672 85.6678Z" fill="#B58C7D"/>
    <path d="M503.51 85.9106C505.89 85.139 506.732 85.8429 506.035 88.0224C503.626 88.7804 502.784 88.0765 503.51 85.9106Z" fill="#BA8C7A"/>
    <path d="M292.271 87.0612C295.29 86.8852 298.323 86.8175 301.357 86.831C301.459 91.8939 301.488 96.9702 301.415 102.047C298.338 102.196 295.246 102.128 292.227 101.532C292.416 96.713 292.387 91.8803 292.271 87.0612ZM293.664 88.8751C293.635 92.5166 293.562 96.1445 293.417 99.7724C295.653 99.9213 297.902 100.043 300.167 100.179C300.326 96.4152 300.297 92.6519 300.152 88.8887C297.989 88.8887 295.827 88.8751 293.664 88.8751Z" fill="#FBF9EC"/>
    <path d="M289.616 149.425C292.562 148.964 295.552 149.032 297.251 151.685C299.544 150.968 301.837 150.223 304.131 149.452C304.363 152.768 304.348 156.098 304.073 159.415C299.587 157.073 294.435 157.601 289.514 157.587C289.543 155.543 289.587 153.499 289.645 151.455C291.358 151.347 293.07 151.252 294.783 151.157C292.998 150.724 291.27 150.142 289.616 149.425Z" fill="#FBF9EC"/>
    <path d="M293.665 88.8758C295.827 88.8758 297.99 88.8893 300.153 88.8893C300.298 92.6526 300.327 96.4159 300.167 100.179C297.903 100.044 295.653 99.922 293.418 99.7731C293.563 96.1452 293.636 92.5173 293.665 88.8758Z" fill="#327DF0"/>
    <path d="M498.049 91.5379C499.718 91.1183 504.175 93.6903 502.113 95.2606C500.139 95.4771 497.004 93.5955 498.049 91.5379Z" fill="#301D49"/>
    <path d="M398.938 163.569C396.63 163.353 396.209 159.427 398.909 159.454C401.551 159.413 401.449 163.515 398.938 163.569Z" fill="#F7BCAD"/>
    <path d="M506.889 103.426C507.484 102.993 508.689 102.113 509.299 101.667C512.289 104.929 511.868 109.098 509.299 112.469C506.614 111.291 504.146 109.762 501.809 108.097C503.449 106.499 505.104 104.902 506.889 103.426Z" fill="#BDD3FC"/>
    <path d="M491.693 103.454C492.404 103.481 493.841 103.535 494.553 103.562C496.381 104.956 498.196 106.378 500.199 107.582L501.244 108.259C499.299 109.491 497.601 112.821 494.828 111.698C492.535 109.64 490.445 106.486 491.693 103.454Z" fill="#BAD6FA"/>
    <path d="M390.583 110.114C395.054 110.791 399.553 111.319 404.009 112.077C406.259 112.875 408.93 113.539 410.106 115.718C415.055 123.164 416.855 131.936 417.711 140.545C409.583 140.64 401.455 140.261 393.326 140.477C393.225 134.629 392.688 128.795 392.223 122.961C391.976 118.656 391.497 114.351 390.583 110.114Z" fill="#1D6DD6"/>
    <path d="M366.458 113.906C370.159 112.498 374.078 111.727 378.026 111.226C376.88 114.84 375.704 118.482 375.312 122.259C376.981 128.215 378.665 134.307 377.3 140.493C367.967 140.493 358.634 140.385 349.301 140.493C352.393 135.241 354.599 129.609 356.152 123.802C357.444 119.023 361.755 115.72 366.458 113.906Z" fill="#1D6DD7"/>
    <path d="M293.159 114.296C300.91 111.806 309.895 118.317 308.342 126.006C307.398 133.763 296.454 137.661 290.024 132.775C282.316 128.443 284.914 116.652 293.159 114.296ZM289.98 118.994C289.98 121.065 289.995 123.136 289.995 125.221C290.851 124.95 292.549 124.395 293.391 124.111C295.888 125.316 301.432 126.101 302.724 123.42C302.913 122.73 303.29 121.349 303.479 120.659C303.813 120.375 304.495 119.806 304.829 119.522C300.576 118.913 296.251 118.818 292.012 119.535C291.504 119.4 290.488 119.129 289.98 118.994ZM290.038 126.223L290.125 127.454C295.031 127.184 300.199 128.185 304.901 126.466C300.01 125.437 294.973 125.816 290.038 126.223ZM289.414 129.688C294.509 130.27 299.676 130.338 304.785 129.742C300.17 127.793 294.044 127.834 289.414 129.688Z" fill="#337EF5"/>
    <path d="M289.977 118.994C290.485 119.129 291.501 119.4 292.009 119.536C295.71 120.646 299.6 121.038 303.476 120.659C303.287 121.35 302.91 122.73 302.721 123.421C299.6 122.974 296.335 122.879 293.388 124.111C292.546 124.395 290.848 124.95 289.992 125.221C289.992 123.136 289.977 121.065 289.977 118.994Z" fill="#80AEF1"/>
    <path d="M292.011 119.535C296.249 118.818 300.575 118.912 304.827 119.521C304.494 119.806 303.811 120.374 303.478 120.659C299.602 121.038 295.712 120.645 292.011 119.535Z" fill="#AFCCFA"/>
    <path d="M375.311 122.257C380.928 122.799 386.575 122.948 392.221 122.961C392.685 128.796 393.222 134.63 393.324 140.478C387.983 140.424 382.641 140.37 377.3 140.492C378.664 134.305 376.98 128.214 375.311 122.257Z" fill="#FCFCFD"/>
    <path d="M293.392 124.112C296.339 122.88 299.604 122.975 302.725 123.422C301.433 126.102 295.889 125.317 293.392 124.112Z" fill="#ACC8FB"/>
    <path d="M290.037 126.222C294.972 125.816 300.008 125.437 304.9 126.465C300.197 128.184 295.03 127.183 290.124 127.453L290.037 126.222Z" fill="#BFD3F7"/>
    <path d="M289.414 129.689C294.044 127.835 300.17 127.794 304.785 129.743C299.676 130.339 294.509 130.271 289.414 129.689Z" fill="#ACC7F8"/>
    <path d="M521.125 137.406C522.939 137.839 523.229 138.922 521.981 140.614C520.152 140.181 519.862 139.098 521.125 137.406Z" fill="#3B347A"/>
    <path d="M328.311 142.453C365.048 142.223 401.799 142.399 438.537 142.359C438.624 166.251 438.609 190.144 438.522 214.023C434.11 214.037 429.697 214.023 425.285 214.023C424.951 206.781 424.864 199.485 423.528 192.324C422.498 185.65 415.153 180.059 407.954 180.641C407.359 178.692 406.299 176.783 406.415 174.712C407.736 170.218 412.497 166.861 412.003 161.906C411.931 157.94 412.134 152.159 406.749 151.158C399.521 148.085 390.362 153.5 391.697 161.175C391.624 166.603 396.24 170.34 398.461 174.969C398.795 176.824 397.59 178.516 397.14 180.262C390.347 180.086 383.714 182.794 380.259 188.398C379.708 187.004 379.214 185.582 378.779 184.161C377.879 180.208 376.892 176.282 375.992 172.343H375.977C376.776 168.675 376.935 164.37 373.771 161.581C370.026 158.251 364.307 159.659 360.185 161.568C357.152 163.558 358.037 167.307 358.4 170.218C358.081 170.949 357.776 171.693 357.529 172.451C355.932 177.487 355.163 182.699 354.365 187.883C351.52 189.345 350.46 192.188 349.401 194.855C346.251 201.055 341.795 206.876 341.476 213.983C337.092 214.078 332.694 214.064 328.325 213.915C328.427 190.104 328.441 166.278 328.311 142.453Z" fill="#F3F7FE"/>
    <path d="M293.534 144.322C302.228 141.303 311.532 150.576 307.555 158.455C304.768 165.941 292.315 167.335 287.655 160.743C282.72 155.287 286.189 146.028 293.534 144.322ZM289.615 149.426C291.27 150.143 292.997 150.725 294.782 151.158C293.069 151.253 291.357 151.348 289.644 151.456C289.586 153.5 289.542 155.544 289.513 157.588C294.434 157.602 299.587 157.074 304.072 159.416C304.348 156.099 304.362 152.769 304.13 149.453C301.836 150.224 299.543 150.969 297.25 151.686C295.551 149.033 292.561 148.965 289.615 149.426Z" fill="#FF1616"/>
    <path d="M488.714 158.034C488.67 153.54 487.146 148.707 489.701 144.565C490.557 145.039 492.27 146 493.126 146.487C497.727 146.108 503.083 144.294 507.249 146.975C509.949 150.061 508.585 154.474 509.18 158.143C508.004 156.87 506.828 155.598 505.624 154.352C504.796 156.071 503.969 157.777 503.156 159.496C502.996 157.939 503.78 156.017 502.59 154.691C502.082 154.745 501.08 154.839 500.572 154.894C501.951 154.041 503.461 153.418 504.985 152.809L506.407 152.186C501.995 149.262 496.087 150.508 491.849 153.026C494.258 153.202 496.537 153.797 498.685 154.785C497.858 155.164 496.203 155.922 495.376 156.301C495.086 157.114 494.505 158.752 494.2 159.577C494.215 157.994 494.941 156.166 493.91 154.718C492.154 155.787 490.441 156.924 488.714 158.034Z" fill="#3D347C"/>
    <path d="M391.697 161.177C390.362 153.502 399.521 148.087 406.749 151.16C412.134 152.162 411.931 157.942 412.004 161.908C410.988 160.324 409.957 158.754 408.912 157.197C404.761 156.954 400.392 156.128 396.386 157.576C394.078 158.253 394.702 161.042 393.976 162.72C393.41 162.328 392.278 161.556 391.697 161.177Z" fill="#3E367C"/>
    <path d="M491.852 153.025C496.09 150.507 501.998 149.262 506.41 152.186L504.988 152.808C503.464 153.418 501.954 154.04 500.575 154.893C501.083 154.839 502.085 154.744 502.593 154.69C503.783 156.017 502.999 157.939 503.159 159.496C503.972 157.777 504.799 156.071 505.626 154.352C506.831 155.597 508.007 156.87 509.183 158.142C509.604 158.711 510.445 159.848 510.866 160.416C508.254 165.032 503.42 169.053 504.48 174.779C502.477 176.674 500.416 178.488 498.34 180.302L497.832 179.625C496.7 178.123 495.539 176.634 494.406 175.131C494.885 170.528 492.491 166.63 489.181 163.462C487.367 162.054 488.543 159.848 488.717 158.034C490.444 156.924 492.157 155.787 493.913 154.717C494.944 156.166 494.218 157.993 494.203 159.577C494.508 158.751 495.089 157.113 495.379 156.301C496.206 155.922 497.861 155.164 498.688 154.785C496.54 153.797 494.261 153.201 491.852 153.025Z" fill="#F7BCAE"/>
    <path d="M396.388 157.575C400.394 156.127 404.763 156.952 408.915 157.196C409.96 158.753 410.99 160.323 412.006 161.907C412.5 166.862 407.739 170.219 406.418 174.713C406.302 176.784 407.362 178.693 407.957 180.642C404.299 181.685 400.496 182.47 397.143 180.263C397.593 178.517 398.798 176.825 398.464 174.97C396.243 170.341 391.627 166.604 391.7 161.176C392.281 161.555 393.413 162.327 393.979 162.719C394.705 161.041 394.081 158.252 396.388 157.575ZM398.943 163.572C401.454 163.518 401.556 159.416 398.914 159.457C396.214 159.43 396.635 163.355 398.943 163.572ZM404.125 160.134C402.833 161.65 405.663 163.68 406.839 161.961C408.552 160.31 405.359 158.631 404.125 160.134ZM400.728 168.242C396.664 170.056 402.688 172.655 404.401 170.3C406.186 168.242 402.151 167.254 400.728 168.242Z" fill="#F7BCAD"/>
    <path d="M360.186 161.567C364.308 159.659 370.027 158.251 373.772 161.581C376.936 164.369 376.776 168.674 375.978 172.343C373.133 168.701 369.722 165.452 365.542 163.138C362.523 164.884 359.997 167.239 358.4 170.217C358.038 167.307 357.152 163.557 360.186 161.567Z" fill="#321E50"/>
    <path d="M404.126 160.133C405.359 158.63 408.553 160.309 406.84 161.96C405.664 163.679 402.834 161.649 404.126 160.133Z" fill="#F7BCAD"/>
    <path d="M358.401 170.217C359.997 167.239 362.523 164.883 365.542 163.137C369.722 165.452 373.133 168.701 375.978 172.342H375.993C373.946 175.226 372.175 178.258 370.288 181.209C370.927 183.348 371.624 185.527 373.046 187.368C368.692 188.478 364.178 188.275 359.722 188.086C363.234 187.761 363.829 184.607 364.221 181.9C361.26 179.233 359.649 175.672 357.53 172.451C357.777 171.693 358.081 170.948 358.401 170.217ZM368.619 169.432C367.879 171.679 368.663 172.464 370.985 171.774C371.711 169.513 370.927 168.742 368.619 169.432Z" fill="#F9BAAC"/>
    <path d="M400.724 168.242C402.147 167.254 406.182 168.242 404.396 170.3C402.684 172.655 396.66 170.056 400.724 168.242Z" fill="#F7BCAD"/>
    <path d="M368.619 169.433C370.926 168.743 371.71 169.514 370.984 171.775C368.662 172.465 367.878 171.68 368.619 169.433Z" fill="#F9BAAC"/>
    <path d="M357.53 172.45C359.65 175.672 361.261 179.232 364.222 181.899C363.83 184.606 363.235 187.761 359.722 188.085L358.445 188.045C357.429 188.004 355.382 187.923 354.366 187.882C355.165 182.698 355.934 177.486 357.53 172.45Z" fill="#382551"/>
    <path d="M370.288 181.21C372.175 178.259 373.946 175.226 375.992 172.343C376.892 176.282 377.879 180.208 378.779 184.161C378.779 185.257 378.794 187.464 378.794 188.56C376.878 188.154 374.947 187.789 373.046 187.369C371.623 185.528 370.927 183.349 370.288 181.21Z" fill="#342556"/>
    <path d="M291.806 175.102C299.499 170.933 309.746 177.674 308.425 185.756C307.656 192.957 298.294 197.384 291.559 193.837C283.329 190.575 283.358 178.134 291.806 175.102ZM294.215 184.199C292.749 184.659 291.269 185.133 289.803 185.607C289.832 186.649 289.875 188.761 289.904 189.803C294.389 189.817 298.874 189.763 303.359 189.627C303.359 188.612 303.345 186.581 303.345 185.566C301.923 185.119 300.515 184.673 299.107 184.24C299.76 181.6 300.21 177.011 295.942 177.16C292.88 178.378 293.664 181.816 294.215 184.199Z" fill="#357DF0"/>
    <path d="M490.514 177.229C491.806 176.525 493.098 175.821 494.404 175.131C495.536 176.633 496.698 178.123 497.83 179.625C497.539 180.559 496.93 182.441 496.625 183.388C495.798 183.483 494.157 183.686 493.345 183.795C492.329 181.629 491.371 179.449 490.514 177.229Z" fill="#EBEBFA"/>
    <path d="M504.48 174.779C505.351 175.118 507.092 175.781 507.963 176.12C506.599 178.895 505.191 181.643 503.725 184.377C502.869 184.093 501.17 183.511 500.314 183.227C499.82 182.496 498.833 181.034 498.34 180.303C500.415 178.489 502.477 176.675 504.48 174.779Z" fill="#EBF2FF"/>
    <path d="M507.962 176.121C509.443 176.838 510.909 177.637 512.346 178.449C509.588 188.941 503.376 198.349 496.089 206.633C490.167 199.743 485.479 190.768 486.64 181.779C485.74 181.644 483.926 181.387 483.026 181.252C485.537 179.938 488.034 178.585 490.516 177.231C491.372 179.451 492.33 181.631 493.346 183.796C494.159 183.688 495.799 183.485 496.626 183.39C494.739 188.629 493.564 194.233 495.349 199.648C499.384 195.303 502.273 188.981 500.313 183.228C501.169 183.512 502.868 184.094 503.724 184.379C505.19 181.644 506.598 178.896 507.962 176.121Z" fill="#D6DCF8"/>
    <path d="M294.215 184.201C293.663 181.818 292.879 178.38 295.942 177.162C300.209 177.013 299.759 181.602 299.106 184.241C300.514 184.675 301.922 185.121 303.345 185.568C303.345 186.583 303.359 188.614 303.359 189.629C298.874 189.765 294.389 189.819 289.904 189.805C289.875 188.763 289.831 186.651 289.802 185.609C291.268 185.135 292.749 184.661 294.215 184.201Z" fill="#FEFCFB"/>
    <path d="M512.349 178.448C515.615 180.424 519.128 182.103 522.002 184.594C525.137 188.249 526.675 192.811 529.027 196.912C531.741 202.273 536.357 207.729 534.107 213.996C511.13 214.064 488.138 214.023 465.161 214.023C467.933 205.698 470.793 197.4 473.696 189.102C474.697 184.824 479.487 183.321 483.029 181.25C483.929 181.386 485.743 181.643 486.643 181.778C485.482 190.767 490.17 199.742 496.092 206.632C503.379 198.347 509.591 188.939 512.349 178.448ZM506.79 199.336C505.992 201.569 506.761 202.354 509.083 201.678C509.867 199.43 509.098 198.645 506.79 199.336Z" fill="#ECF0FE"/>
    <path d="M380.262 188.401C383.717 182.796 390.35 180.089 397.143 180.265C400.496 182.471 404.299 181.686 407.957 180.644C415.156 180.062 422.501 185.653 423.531 192.326C424.867 199.487 424.954 206.784 425.287 214.026C412.674 214.04 400.061 214.04 387.447 214.026C387.563 209.288 387.607 204.523 386.823 199.826C384.834 203.928 385.415 208.517 385.371 212.875C384.442 204.604 386.141 195.426 380.262 188.401Z" fill="#BED1FC"/>
    <path d="M497.833 179.627L498.341 180.304C498.835 181.035 499.822 182.497 500.315 183.228C502.275 188.981 499.386 195.303 495.351 199.648C493.566 194.233 494.742 188.629 496.629 183.39C496.933 182.442 497.543 180.561 497.833 179.627Z" fill="#9EA8DB"/>
    <path d="M378.779 184.163C379.215 185.584 379.708 187.006 380.26 188.4C386.138 195.426 384.44 204.604 385.369 212.875L385.413 214.012C375.542 214.039 365.672 214.053 355.802 213.999C355.526 210.709 355.207 207.433 354.772 204.171C351.97 206.838 350.998 210.479 350.229 214.012C347.297 214.012 344.379 213.999 341.476 213.985C341.795 206.878 346.251 201.057 349.401 194.857C350.272 195.331 351.999 196.265 352.87 196.725C355.947 194.6 358.226 191.744 358.444 188.048L359.721 188.089C364.177 188.278 368.691 188.481 373.046 187.371C374.947 187.791 376.878 188.156 378.794 188.563C378.794 187.466 378.779 185.26 378.779 184.163Z" fill="#A28AC1"/>
    <path d="M349.401 194.857C350.461 192.19 351.521 189.347 354.365 187.885C355.382 187.926 357.428 188.007 358.444 188.048C358.226 191.743 355.948 194.6 352.87 196.725C352 196.265 350.272 195.331 349.401 194.857Z" fill="#F5B7A5"/>
    <path d="M506.786 199.337C509.093 198.647 509.863 199.432 509.079 201.679C506.757 202.356 505.987 201.571 506.786 199.337Z" fill="#CFD0EE"/>
    <path d="M385.374 212.873C385.417 208.514 384.837 203.925 386.825 199.823C387.609 204.521 387.566 209.286 387.449 214.024L385.417 214.01L385.374 212.873Z" fill="#E2EBFF"/>
    <path d="M350.229 214.008C350.999 210.475 351.971 206.834 354.773 204.167C355.208 207.429 355.527 210.705 355.803 213.995C354.41 213.995 351.623 214.008 350.229 214.008Z" fill="#EBF1F9"/>
    <rect x="448.391" y="123.099" width="106.088" height="75.4406" fill="#BFD2FC"/>
    <rect x="448.391" y="123.099" width="106.088" height="75.4406" fill="#FAEDE5"/>
    <path d="M496.899 115.219H449.365V118.238H453.15V137.926H457.237V118.238H496.899V115.219Z" fill="#D4EDF9"/>
    <path d="M544.339 82.163H515.062V85.0386H544.339V82.163Z" fill="#D4EDF9"/>
    <path d="M544.339 90.3084H515.062V93.1839H544.339V90.3084Z" fill="#D4EDF9"/>
    <path d="M544.339 98.4562H515.062V101.332H544.339V98.4562Z" fill="#D4EDF9"/>
    <path d="M544.339 106.604H515.062V109.48H544.339V106.604Z" fill="#D4EDF9"/>
    <path d="M544.339 114.747H515.062V117.623H544.339V114.747Z" fill="#D4EDF9"/>
    <path d="M517.925 76.6023H514.947V138.233H517.925V76.6023Z" fill="#D4EDF9"/>
    <path d="M545.181 76.6004H542.204V138.231H545.181V76.6004Z" fill="#D4EDF9"/>
    <path d="M544.339 122.895H515.062V125.771H544.339V122.895Z" fill="#D4EDF9"/>
    <path d="M485.742 97.3448C486.3 99.1925 485.674 100.984 484.346 101.345C483.017 101.706 481.489 100.501 480.931 98.6522C480.374 96.8045 480.999 95.013 482.328 94.652C483.657 94.2909 485.185 95.497 485.742 97.3448Z" fill="url(#paint0_linear)"/>
    <path d="M508.459 97.1236C507.902 98.9722 508.527 100.763 509.856 101.124C511.184 101.485 512.713 100.28 513.27 98.431C513.827 96.5824 513.203 94.7918 511.874 94.4307C510.546 94.0697 509.016 95.275 508.459 97.1236Z" fill="url(#paint1_linear)"/>
    <path d="M525.684 130.269C524.56 125.854 521.622 121.073 515.347 119.186C509.915 117.553 499.623 117.525 497.238 117.702C494.853 117.525 484.539 117.583 479.249 119.591C472.798 122.038 469.916 125.854 468.792 130.269C467.667 134.684 465.981 140.435 465.981 140.435H495.552H498.924H528.495C528.494 140.435 526.808 134.684 525.684 130.269Z" fill="url(#paint2_linear)"/>
    <path d="M492.143 105.343L488.429 118.752C488.429 118.752 495.957 127.947 505.411 118.899L501.79 104.945L492.143 105.343Z" fill="url(#paint3_linear)"/>
    <path d="M510.944 95.1035C510.533 96.8439 511.6 98.5817 510.969 100.248C508.429 106.955 504.036 112.516 497.3 112.516C490.64 112.516 486.033 107.631 483.569 100.819C482.922 99.0293 484.006 97.1062 483.657 95.1035C482 85.6162 488.89 77.6918 497.3 77.6918C505.709 77.6909 513.154 85.7192 510.944 95.1035Z" fill="url(#paint4_linear)"/>
    <path d="M489.115 78.7738C486.442 80.1506 484.292 82.4191 483.132 85.0877C481.971 87.7564 481.809 90.8042 482.681 93.5698C482.869 94.1664 483.128 94.782 483.651 95.1569C484.175 95.5319 485.032 95.5448 485.407 95.034C485.656 94.6937 485.627 94.2434 485.603 93.8296C485.52 92.3931 485.626 90.9358 486.049 89.5539C486.729 87.3381 488.243 85.3614 490.253 84.0643C490.796 83.7145 491.376 83.4097 491.853 82.9837C492.33 82.5568 492.703 81.9749 492.681 81.3524C492.653 80.58 492.042 79.9454 491.412 79.4561C490.508 78.7539 489.261 78.1738 488.21 78.6578" fill="url(#paint5_linear)"/>
    <path d="M504.411 81.129C503.538 82.0529 503.289 83.4271 503.644 84.6219C503.999 85.816 504.905 86.8256 506.015 87.481C506.887 87.9971 507.915 88.3339 508.577 89.082C509.09 89.663 509.317 90.4284 509.392 91.1835C509.467 91.9385 509.404 92.6987 509.407 93.4564C509.409 93.7698 509.428 94.0997 509.603 94.3655C509.946 94.8859 510.752 94.937 511.35 94.7024C512.09 94.4123 512.649 93.7949 512.981 93.104C513.313 92.413 513.44 91.6493 513.505 90.8926C513.693 88.7097 513.389 86.474 512.495 84.4548C511.599 82.4356 510.098 80.6433 508.152 79.4666C507.492 79.0674 506.756 78.7332 505.974 78.7124C505.193 78.6916 504.36 79.0484 504.031 79.722" fill="url(#paint6_linear)"/>
    <path d="M495.273 85.9483C494.187 86.1613 493.079 86.3301 491.972 86.2591C490.866 86.1881 489.751 85.8599 488.906 85.1776C488.401 84.7698 487.983 84.1412 488.166 83.536C488.353 82.9195 489.058 82.6086 489.687 82.374C488.691 82.4389 487.673 82.3722 486.73 82.0605C485.787 81.7497 484.92 81.1791 484.38 80.3825C484.083 79.9435 483.886 79.4023 484.03 78.8984C484.173 78.3945 484.755 77.9884 485.277 78.1538C485.458 78.2109 485.636 78.3313 485.823 78.2923C486.014 78.2525 486.128 78.0524 486.126 77.8672C486.124 77.6819 486.036 77.5087 485.948 77.3433C485.723 76.9138 485.494 76.4705 485.453 75.9926C485.412 75.5146 485.601 74.9856 486.04 74.7492C486.493 74.505 487.055 74.6262 487.564 74.7293C490.329 75.2886 493.19 75.0947 496.016 75.0739C498.843 75.0531 501.769 75.2341 504.284 76.4575C505.464 77.0316 506.567 77.8793 507.062 79.0473C507.41 79.8682 507.403 80.9548 506.897 81.7228C506.546 82.2545 505.965 82.3731 505.39 82.6052C503.302 83.4502 501.278 84.3507 499.106 84.9993C497.846 85.3759 496.566 85.6946 495.273 85.9483Z" fill="url(#paint7_linear)"/>
    <path d="M463.497 98.4052C467.818 98.4052 471.321 95.0798 471.321 90.9778C471.321 86.8758 467.818 83.5504 463.497 83.5504C459.176 83.5504 455.673 86.8758 455.673 90.9778C455.673 95.0798 459.176 98.4052 463.497 98.4052Z" fill="#D4EDF9"/>
    <path d="M463.793 92.5355C464.416 92.5355 464.922 92.0555 464.922 91.4635C464.922 90.8715 464.416 90.3915 463.793 90.3915C463.169 90.3915 462.664 90.8715 462.664 91.4635C462.664 92.0555 463.169 92.5355 463.793 92.5355Z" fill="#F3FCFF"/>
    <path d="M463.487 91.2745C463.45 90.9792 463.381 84.809 463.381 84.809C463.381 84.809 463.829 84.544 463.796 84.9051C463.763 85.2662 464.282 91.2702 464.177 91.2052" fill="#F3FCFF"/>
    <path d="M463.385 92.0587C463.192 92.0734 459.256 91.6284 459.256 91.6284C459.256 91.6284 459.156 91.1149 459.381 91.1807C459.606 91.2465 463.504 91.1859 463.447 91.2941" fill="#F3FCFF"/>
    <rect x="446.033" y="200.897" width="108.446" height="76.6194" fill="#BFD2FC"/>
    <path d="M483.119 156.768C480.661 165.534 477.31 175.292 477.783 184.348C477.839 185.431 477.976 186.629 478.835 187.35C479.306 187.743 479.926 187.93 480.53 188.099C491.604 191.191 503.548 191.477 514.776 188.918C516.532 188.518 518.407 187.962 519.453 186.576C520.326 185.418 520.439 183.913 520.462 182.494C520.553 177.017 519.761 171.528 518.124 166.271C516.885 162.293 515.09 158.344 511.971 155.419C508.521 152.182 503.614 150.458 498.744 150.45C493.874 150.443 489.072 152.087 485.126 154.775" fill="url(#paint8_linear)"/>
    <path d="M484.42 172.163C484.961 173.918 484.354 175.619 483.063 175.962C481.773 176.305 480.287 175.16 479.746 173.405C479.204 171.65 479.811 169.949 481.102 169.606C482.393 169.262 483.879 170.408 484.42 172.163Z" fill="url(#paint9_linear)"/>
    <path d="M511.954 172.163C511.412 173.918 512.019 175.619 513.31 175.962C514.6 176.305 516.086 175.16 516.628 173.405C517.17 171.65 516.562 169.949 515.271 169.606C513.98 169.262 512.494 170.408 511.954 172.163Z" fill="url(#paint10_linear)"/>
    <path d="M476.662 200.401C470.395 202.673 467.652 208.49 468.143 213.944H481.715C481.412 208.943 480.623 202.849 480.136 198.981C478.943 199.512 477.764 200.001 476.662 200.401Z" fill="url(#paint11_linear)"/>
    <path d="M518.916 200.4C518.535 200.262 518.143 200.112 517.746 199.955C517.067 204.726 517.104 210.117 517.269 213.943H527.437C527.925 208.49 525.184 202.673 518.916 200.4Z" fill="url(#paint12_linear)"/>
    <path d="M517.743 199.956C511.616 197.527 503.931 193.039 503.931 193.039H491.647C491.647 193.039 485.728 196.494 480.136 198.982C480.624 202.85 481.413 208.943 481.715 213.945H497.467H498.11H517.267C517.102 210.119 517.065 204.727 517.743 199.956Z" fill="url(#paint13_linear)"/>
    <path d="M517.743 199.956C511.616 197.527 503.931 193.039 503.931 193.039H491.647C491.647 193.039 485.728 196.494 480.136 198.982C480.624 202.85 481.413 208.943 481.715 213.945H497.467H498.11H517.267C517.102 210.119 517.065 204.727 517.743 199.956Z" fill="url(#paint14_linear)"/>
    <path d="M492.938 181.374L489.327 196.66C489.327 196.66 496.648 207.142 505.84 196.827L502.32 180.92L492.938 181.374Z" fill="url(#paint15_linear)"/>
    <path d="M500.3 187.705H495.861C488.493 187.705 482.519 182.161 482.519 175.322V155.901H513.642V175.323C513.642 182.161 507.668 187.705 500.3 187.705Z" fill="url(#paint16_linear)"/>
    <path d="M503.95 153.376C503.651 155.092 502.193 156.41 500.765 157.535C495.783 161.46 490.191 164.665 484.455 167.571C483.457 168.077 483.047 168.848 482.599 169.819C480.817 166.442 479.982 162.196 481.288 158.637C482.594 155.078 485.323 152.017 488.744 150.003C492.164 147.987 496.243 147.001 500.294 147.019C501.592 147.024 502.928 147.14 504.083 147.689C505.239 148.238 506.182 149.303 506.211 150.507C506.232 151.365 505.793 152.19 505.186 152.838C504.58 153.486 503.814 153.985 503.056 154.478" fill="url(#paint17_linear)"/>
    <path d="M517.655 164.136C518.218 162.234 517.936 160.161 517.068 158.36C516.2 156.559 514.774 155.02 513.114 153.79C510.881 152.134 508.001 150.982 505.19 151.46C504.433 151.588 503.686 151.839 503.083 152.284C502.48 152.729 502.034 153.382 501.972 154.095C501.897 154.949 502.363 155.76 502.875 156.474C504.099 158.183 505.652 159.664 507.046 161.256C508.727 163.175 510.18 165.267 511.372 167.478C511.633 167.961 511.889 168.46 512.307 168.837C514.36 170.687 517.222 165.6 517.655 164.136Z" fill="url(#paint18_linear)"/>
    <path d="M490.497 178.547C493.715 178.547 496.323 175.98 496.323 172.813C496.323 169.646 493.715 167.078 490.497 167.078C487.28 167.078 484.672 169.646 484.672 172.813C484.672 175.98 487.28 178.547 490.497 178.547Z" stroke="#291B6F" stroke-width="0.8942" stroke-miterlimit="10"/>
    <path d="M505.864 178.548C509.081 178.548 511.689 175.98 511.689 172.813C511.689 169.646 509.081 167.078 505.864 167.078C502.646 167.078 500.038 169.646 500.038 172.813C500.038 175.98 502.646 178.548 505.864 178.548Z" stroke="#291B6F" stroke-width="0.8942" stroke-miterlimit="10"/>
    <path d="M496.305 173.102H499.903" stroke="#291B6F" stroke-width="1.0788" stroke-miterlimit="10"/>
    <defs>
        <linearGradient id="paint0_linear" x1="482.672" y1="95.795" x2="483.583" y2="99.1453" gradientUnits="userSpaceOnUse">
            <stop stop-color="#F2A486"/>
            <stop offset="1" stop-color="#DB7D61"/>
        </linearGradient>
        <linearGradient id="paint1_linear" x1="511.53" y1="95.5736" x2="510.619" y2="98.924" gradientUnits="userSpaceOnUse">
            <stop stop-color="#F2A486"/>
            <stop offset="1" stop-color="#DB7D61"/>
        </linearGradient>
        <linearGradient id="paint2_linear" x1="497.237" y1="124.79" x2="497.237" y2="137.797" gradientUnits="userSpaceOnUse">
            <stop stop-color="#A4A4DD"/>
            <stop offset="1" stop-color="#7575BF"/>
        </linearGradient>
        <linearGradient id="paint3_linear" x1="496.919" y1="117.878" x2="496.919" y2="113.852" gradientUnits="userSpaceOnUse">
            <stop stop-color="#F2A486"/>
            <stop offset="1" stop-color="#DB7D61"/>
        </linearGradient>
        <linearGradient id="paint4_linear" x1="497.387" y1="99.9919" x2="497.673" y2="135.415" gradientUnits="userSpaceOnUse">
            <stop stop-color="#F2A486"/>
            <stop offset="1" stop-color="#DB7D61"/>
        </linearGradient>
        <linearGradient id="paint5_linear" x1="487.417" y1="81.3703" x2="487.396" y2="89.7965" gradientUnits="userSpaceOnUse">
            <stop stop-color="#3E3B7E"/>
            <stop offset="1" stop-color="#212159"/>
        </linearGradient>
        <linearGradient id="paint6_linear" x1="508.538" y1="81.467" x2="508.518" y2="89.4724" gradientUnits="userSpaceOnUse">
            <stop stop-color="#3E3B7E"/>
            <stop offset="1" stop-color="#212159"/>
        </linearGradient>
        <linearGradient id="paint7_linear" x1="495.652" y1="76.6173" x2="495.637" y2="82.408" gradientUnits="userSpaceOnUse">
            <stop stop-color="#3E3B7E"/>
            <stop offset="1" stop-color="#212159"/>
        </linearGradient>
        <linearGradient id="paint8_linear" x1="499.103" y1="179.433" x2="499.103" y2="170.412" gradientUnits="userSpaceOnUse">
            <stop stop-color="#3E3B7E"/>
            <stop offset="1" stop-color="#212159"/>
        </linearGradient>
        <linearGradient id="paint9_linear" x1="481.437" y1="170.691" x2="482.285" y2="173.882" gradientUnits="userSpaceOnUse">
            <stop stop-color="#F2A486"/>
            <stop offset="1" stop-color="#DB7D61"/>
        </linearGradient>
        <linearGradient id="paint10_linear" x1="514.936" y1="170.691" x2="514.088" y2="173.882" gradientUnits="userSpaceOnUse">
            <stop stop-color="#F2A486"/>
            <stop offset="1" stop-color="#DB7D61"/>
        </linearGradient>
        <linearGradient id="paint11_linear" x1="475.058" y1="195.365" x2="474.969" y2="207.112" gradientUnits="userSpaceOnUse">
            <stop stop-color="#F2A486"/>
            <stop offset="1" stop-color="#DB7D61"/>
        </linearGradient>
        <linearGradient id="paint12_linear" x1="522.462" y1="195.722" x2="522.373" y2="207.469" gradientUnits="userSpaceOnUse">
            <stop stop-color="#F2A486"/>
            <stop offset="1" stop-color="#DB7D61"/>
        </linearGradient>
        <linearGradient id="paint13_linear" x1="498.974" y1="195.546" x2="498.886" y2="207.293" gradientUnits="userSpaceOnUse">
            <stop stop-color="#F2A486"/>
            <stop offset="1" stop-color="#DB7D61"/>
        </linearGradient>
        <linearGradient id="paint14_linear" x1="498.94" y1="198.722" x2="498.94" y2="217.328" gradientUnits="userSpaceOnUse">
            <stop stop-color="white"/>
            <stop offset="0.9989" stop-color="#CCCCCC"/>
        </linearGradient>
        <linearGradient id="paint15_linear" x1="497.583" y1="195.663" x2="497.583" y2="191.074" gradientUnits="userSpaceOnUse">
            <stop stop-color="#F2A486"/>
            <stop offset="1" stop-color="#DB7D61"/>
        </linearGradient>
        <linearGradient id="paint16_linear" x1="498.178" y1="176.234" x2="498.435" y2="208.728" gradientUnits="userSpaceOnUse">
            <stop stop-color="#F2A486"/>
            <stop offset="1" stop-color="#DB7D61"/>
        </linearGradient>
        <linearGradient id="paint17_linear" x1="493.432" y1="150.91" x2="493.432" y2="162.238" gradientUnits="userSpaceOnUse">
            <stop stop-color="#3E3B7E"/>
            <stop offset="1" stop-color="#212159"/>
        </linearGradient>
        <linearGradient id="paint18_linear" x1="509.956" y1="154.403" x2="509.956" y2="163.29" gradientUnits="userSpaceOnUse">
            <stop stop-color="#3E3B7E"/>
            <stop offset="1" stop-color="#212159"/>
        </linearGradient>
    </defs>
</svg>

