<?xml version="1.0" encoding="utf-8"?>
<!-- Generator: Adobe Illustrator 21.0.0, SVG Export Plug-In . SVG Version: 6.00 Build 0)  -->
<svg version="1.1" id="Layer_1" xmlns="http://www.w3.org/2000/svg" xmlns:xlink="http://www.w3.org/1999/xlink" x="0px" y="0px"
     viewBox="0 0 4256 2240" style="enable-background:new 0 0 4256 2240;" xml:space="preserve">
<style type="text/css">
	.st0{fill:#051EC4;}
	.st1{fill:#FFFFFF;}
</style>
    <path class="st0" d="M3943.2,894.4c-102.4-104.4-234.9-159.7-383.2-159.7c-135.8,0-258.9,47.1-358,136.4
	c-90.8-88-204.6-135.1-331.1-135.7c-0.5,0-3.3,0-4.1,0c-94.2,0.7-181.6,27.4-257.1,77.5c-140.8-217.2-385.2-361.4-662.7-361.4
	c-107.3,0-213.2,22.1-310.8,63.8c-165.3-165.1-389.9-259.4-631.6-259.4c-494.1,0-896.1,402-896.1,896.1s402,896.1,896.1,896.1
	c179.7,0,354-54.3,500.6-152.9c129.1,87.3,282.3,135.2,441.8,135.2c227.8,0,433.2-97.1,577.4-251.9c11.4,6.6,23.2,12.6,35.6,17.2
	c28.8,10.8,60.1,16.3,92.9,16.3c70.1,0,134.9-26.2,183.8-74.1c12.5-11.8,23.7-24.7,33.4-38.5c5.6,8.1,11.7,15.9,18.2,23.5
	c49.8,57.4,119.9,89.1,197.3,89.1c72.5,0,138.3-27.3,186.9-77.1c1.2-1.2,2.2-2.4,3.3-3.6c84.3,53,180.7,80.7,284.2,80.7
	c52.1,0,102.2-7,149.1-20.9c4.3-1.3,8.6-2.6,12.8-4c35.1,16.4,73.5,24.8,113.9,24.8c69.9,0,135.8-27.4,185.6-77.2
	c35.4-35.4,59.3-79.2,70.1-127.1c5-18.4,7.7-37.6,7.7-57.2v-277.1C4099.2,1128.4,4045,997.2,3943.2,894.4z M1267,1322.4
	c-58.2,89.3-156.4,142.6-262.5,142.6c-17.7,0-35.8-1.5-53.5-4.4c-137.5-22.8-246.1-140.6-258.3-280.2c-7.8-89.1,21-174.2,81.1-239.7
	C834,875,915.9,838.8,1004.5,838.8c49.4,0,99.9,11.4,150.2,33.9c57.4,25.7,105.5,77.3,132,141.9l8.9,21.6
	C1326,1110.5,1310.8,1255.3,1267,1322.4z M2151.9,1266.2c-9.6,82.4-69.6,152.1-149.3,173.5c-18.4,4.9-37.1,7.4-55.6,7.4
	c-75,0-144.3-40.9-180.8-106.8c-33.2-60-23.1-177.1,20.2-229.2l1.8-2.2c28.1-33.8,64.2-57.6,101.8-67.2c19.2-4.9,38.3-7.4,57-7.4
	c58.7,0,114.9,25.3,154.2,69.5C2140.8,1148.5,2158.8,1206.1,2151.9,1266.2z"/>
    <g>
	<g>
		<path class="st1" d="M1947,667.3c-133.6,0-260.9,46.1-362.4,129c-122.3-200.2-339.8-324.6-580-324.6
			c-375,0-680.1,305.1-680.1,680.1c0,375,305.1,680.1,680.1,680.1c193.9,0,375.3-81.6,503.2-222.6
			c107.9,128.4,268.1,204.8,439.2,204.8c316.2,0,573.5-257.3,573.5-573.5C2520.4,924.6,2263.2,667.3,1947,667.3z M2366.3,1291.2
			c-19.7,169.5-143,312.8-307.7,357.1c-193.4,52-388.9-36.5-481.3-203.3v0c-27.6-49.8-98.3-52.4-129.4-4.7
			c-114.3,175.2-319.9,268.3-532.1,233.2c-235.5-38.9-417.4-236.7-438.2-474.4c-34.1-391,360.2-704.8,765.3-523.6
			c111.4,49.8,197.1,143.9,243.5,256.9c3,7.3,6,14.6,9,21.9c21.1,51.4,89.3,61.8,125.1,18.8l1.7-2.1
			c55.7-66.9,130.1-116.9,214.4-138.4C2134.1,756.6,2400.3,999.1,2366.3,1291.2z"/>
        <path class="st1" d="M2870.4,935.4h-1.3c-75.2,0.3-140.5,27.6-194,81.1c-55.2,54.5-83.1,119.8-83.1,194.1v339.1
			c0,18.8,6,33.4,17.8,43.5c5.8,7,12.8,12.2,20.3,15c6.5,2.4,13.6,3.5,22.6,3.5c18.3,0,33.5-6.2,45.2-18.3
			c12-10.7,18.1-25.4,18.1-43.7v-335.3c0-43.1,15-79.9,44.6-109.5c30.7-30.2,66.2-44.8,108.5-44.8s77.7,14.7,108.4,44.8
			c30.4,29.8,45.2,65.7,45.2,109.5v335.3c0,15,5.7,29.5,16.5,42c11.3,13.1,27.3,20,46.2,20c19,0,34.3-6.2,45.4-18.6
			c6.5-5.9,11-12.3,13.7-19.6c2.4-6.4,3.5-14,3.5-23.9v-335.3c0-76.1-27.5-142.3-81.8-196.6C3011.9,963.4,2946,935.7,2870.4,935.4z"
        />
        <path class="st1" d="M3800.3,1034.4c-64.8-66.1-145.7-99.6-240.3-99.6c-93.6,0-174.2,33.5-239.6,99.6
			c-65.6,66.3-98.8,146.6-98.8,238.9c0,92.3,33.3,172.6,98.9,238.9c66,66,146.7,99.5,239.6,99.5c33.3,0,63.6-4.1,92.4-12.7
			c29.1-8.6,57.2-21.3,83.8-37.9c11-7.1,21.3-14.4,31.5-22.3c1.6-1.2,3.2-2.5,4.8-3.8v14c0,16.9,5.6,31.9,16.5,44.6l1.6,1.6
			c12.7,11,27.9,16.5,45.2,16.5c17,0,31.8-6.2,44.1-18.6c4.1-4.1,7.5-8.6,10.2-13.4c5.3-9.4,8.1-19.9,8.1-30.7l0.8-275.8
			C3899.1,1181,3865.9,1100.6,3800.3,1034.4z M3773.8,1273.9c0,59-20.4,108.1-62.4,150.1l-0.1,0.1c-40.8,41.4-91.7,62.3-151.3,62.3
			c-59.4,0-108.7-20.4-150.6-62.3c-42.1-42.6-62.5-91.9-62.5-150.8c0-58.4,21-109.4,62.5-151.4c40.4-40.9,91-61.7,150.6-61.7
			c59.4,0,110.4,20.8,151.2,61.6C3753.3,1165,3773.8,1214.8,3773.8,1273.9z"/>
	</g>
</g>
</svg>
